{"glyphs":{"0":{"ha":1028,"x_min":30,"x_max":998,"o":"m 507 998 q 722 960 623 998 q 861 868 802 928 q 951 734 920 808 q 998 487 998 626 q 970 291 998 385 q 882 128 941 197 q 726 19 823 60 q 511 -22 629 -22 q 307 16 399 -22 q 152 120 214 54 q 60 280 91 186 q 30 485 30 373 q 65 706 30 603 q 145 845 93 785 q 250 934 197 904 q 368 981 302 964 q 507 998 434 998 m 513 199 q 579 222 551 199 q 620 299 606 244 q 633 493 633 355 q 627 620 633 563 q 607 710 621 677 q 567 759 593 742 q 512 777 542 777 q 468 766 489 777 q 432 734 447 755 q 408 684 416 714 q 397 616 401 663 q 391 478 391 553 q 399 334 391 404 q 409 287 403 306 q 432 238 419 256 q 466 210 445 221 q 513 199 487 199 z "},"1":{"ha":722,"x_min":-18,"x_max":647,"o":"m -18 726 l 353 979 l 647 979 l 647 0 l 297 0 l 297 629 l 81 474 l -18 726 z "},"2":{"ha":822,"x_min":25,"x_max":793,"o":"m 397 233 l 793 233 l 793 0 l 25 0 l 25 272 q 288 416 168 339 q 422 531 388 481 q 445 621 445 566 q 399 714 445 677 q 258 751 353 751 q 154 740 210 751 q 46 706 97 728 l 46 958 q 363 998 230 998 q 595 959 496 998 q 744 843 694 920 q 793 673 793 767 q 772 556 793 610 q 712 455 751 502 q 600 355 673 408 q 397 233 526 302 z "},"3":{"ha":822,"x_min":32,"x_max":791,"o":"m 154 381 l 154 591 q 242 588 220 588 q 380 610 340 588 q 421 677 421 631 q 391 741 421 718 q 275 773 350 773 q 166 761 237 773 q 41 733 95 749 l 41 958 q 334 998 198 998 q 555 968 454 998 q 670 915 621 949 q 747 830 719 880 q 774 714 774 781 q 755 617 774 661 q 699 545 735 573 q 596 494 663 517 q 746 405 701 461 q 791 266 791 349 q 700 77 791 147 q 344 -18 577 -18 q 180 -6 271 -18 q 32 21 90 5 l 32 248 q 178 212 111 224 q 282 201 244 201 q 405 233 362 201 q 434 294 434 255 q 397 363 434 335 q 271 391 361 391 q 154 381 217 391 z "},"4":{"ha":977,"x_min":22,"x_max":955,"o":"m 955 425 l 955 186 l 785 186 l 785 0 l 448 0 l 448 186 l 22 186 l 22 508 l 437 979 l 785 979 l 785 425 l 955 425 m 473 404 l 473 686 l 228 404 l 473 404 z "},"5":{"ha":822,"x_min":51,"x_max":792,"o":"m 51 22 l 51 243 q 258 214 178 214 q 389 245 350 214 q 429 326 429 277 q 384 409 429 374 q 240 444 340 444 q 64 421 164 444 l 64 979 l 749 979 l 749 744 l 385 744 l 385 598 q 455 602 426 602 q 621 569 543 602 q 746 469 700 537 q 792 304 792 401 q 760 159 792 220 q 668 58 728 97 q 524 1 607 18 q 349 -16 441 -16 q 185 -5 267 -16 q 51 22 104 6 z "},"6":{"ha":950,"x_min":23,"x_max":926,"o":"m 840 968 l 840 743 q 614 780 711 780 q 498 762 547 780 q 420 717 448 745 q 381 657 393 690 q 369 577 370 625 q 461 618 409 602 q 569 633 513 633 q 754 592 669 633 q 883 479 839 551 q 926 323 926 406 q 878 153 926 235 q 732 24 829 70 q 509 -21 635 -21 q 253 39 366 -21 q 82 217 140 99 q 23 485 23 335 q 83 745 23 631 q 276 927 143 859 q 583 996 410 996 q 840 968 677 996 m 607 321 q 574 412 607 378 q 491 447 541 447 q 408 409 442 447 q 374 313 374 372 q 408 222 374 258 q 490 186 443 186 q 572 224 537 186 q 607 321 607 262 z "},"7":{"ha":822,"x_min":16,"x_max":803,"o":"m 16 709 l 16 979 l 803 979 l 803 706 l 456 0 l 40 0 l 453 709 l 16 709 z "},"8":{"ha":950,"x_min":22,"x_max":927,"o":"m 210 495 q 76 577 119 522 q 33 709 33 631 q 85 861 33 798 q 229 961 138 925 q 463 997 320 997 q 699 965 597 997 q 807 911 760 946 q 882 828 855 877 q 909 714 909 779 q 889 618 909 661 q 834 548 869 576 q 734 495 799 521 q 880 409 832 467 q 927 272 927 351 q 892 144 927 201 q 795 50 857 87 q 648 -4 733 13 q 473 -21 562 -21 q 224 16 330 -21 q 120 72 167 37 q 47 155 73 106 q 22 266 22 203 q 49 379 22 330 q 123 458 77 427 q 210 495 155 479 m 474 587 q 544 620 515 587 q 573 704 573 652 q 544 785 573 754 q 469 815 515 815 q 398 785 427 815 q 369 704 369 754 q 402 616 369 646 q 474 587 435 587 m 476 174 q 555 209 524 174 q 586 307 586 244 q 555 400 586 366 q 477 434 524 434 q 394 399 428 434 q 361 307 361 363 q 395 210 361 247 q 476 174 429 174 z "},"9":{"ha":950,"x_min":22,"x_max":925,"o":"m 109 6 l 109 231 q 334 195 236 195 q 451 212 401 195 q 528 257 500 229 q 567 316 555 284 q 580 397 579 349 q 488 356 541 372 q 379 340 435 340 q 194 382 279 340 q 65 496 109 423 q 22 651 22 568 q 71 822 22 739 q 216 950 120 905 q 439 995 313 995 q 695 935 582 995 q 867 757 808 875 q 925 490 925 639 q 865 229 925 343 q 672 47 806 115 q 366 -22 538 -22 q 109 6 273 -22 m 342 652 q 375 562 342 596 q 457 527 408 527 q 540 565 506 527 q 574 661 574 602 q 540 751 574 715 q 458 787 506 787 q 376 750 411 787 q 342 652 342 712 z "}," ":{"ha":513,"x_min":0,"x_max":0,"o":""},"!":{"ha":591,"x_min":113,"x_max":484,"o":"m 113 979 l 484 979 l 429 359 l 164 359 l 113 979 m 144 0 l 144 257 l 447 257 l 447 0 l 144 0 z "},"\"":{"ha":772,"x_min":125,"x_max":647,"o":"m 316 568 l 167 568 l 125 959 l 125 994 l 357 994 l 357 959 l 316 568 m 606 568 l 456 568 l 415 959 l 415 994 l 647 994 l 647 959 l 606 568 z "},"#":{"ha":833,"x_min":-45,"x_max":878,"o":"m 210 0 l -6 0 l 66 235 l -45 235 l 12 419 l 122 419 l 170 574 l 59 574 l 115 758 l 226 758 l 298 994 l 514 994 l 442 758 l 551 758 l 623 994 l 839 994 l 767 758 l 878 758 l 821 574 l 711 574 l 663 419 l 774 419 l 718 235 l 608 235 l 535 0 l 319 0 l 391 235 l 282 235 l 210 0 m 447 419 l 494 574 l 386 574 l 338 419 l 447 419 z "},"$":{"ha":874,"x_min":58,"x_max":827,"o":"m 358 939 l 358 1098 l 540 1098 l 540 942 q 771 907 673 934 l 771 686 q 657 715 699 708 q 542 725 595 725 q 434 701 469 725 q 410 659 410 684 q 427 625 410 640 q 515 594 444 609 q 646 561 612 572 q 745 508 707 538 q 805 435 783 478 q 827 336 827 391 q 802 228 827 281 q 736 139 777 174 q 642 81 694 104 q 540 48 605 64 l 540 -127 l 358 -127 l 358 35 q 58 77 216 35 l 58 290 q 172 260 104 273 q 300 248 240 248 q 448 274 406 248 q 473 315 473 288 q 459 349 473 336 q 392 376 445 363 q 246 418 291 400 q 146 477 186 443 q 84 559 106 511 q 61 665 61 606 q 138 840 61 762 q 358 939 215 918 z "},"%":{"ha":1337,"x_min":52,"x_max":1291,"o":"m 490 -27 l 333 -27 l 855 1023 l 1013 1023 l 490 -27 m 52 720 q 129 931 52 853 q 336 1010 207 1010 q 532 937 462 1010 q 603 727 603 864 q 585 603 603 659 q 533 513 566 547 q 460 460 500 478 q 323 433 399 433 q 175 467 235 433 q 83 569 115 502 q 52 720 52 635 m 327 581 q 365 594 350 581 q 384 637 379 608 q 389 757 389 667 q 373 838 389 817 q 330 859 357 859 q 295 846 311 859 q 273 808 280 834 q 267 704 267 781 q 281 605 267 630 q 327 581 295 581 m 740 260 q 818 472 740 393 q 1024 550 895 550 q 1220 477 1149 550 q 1291 267 1291 405 q 1273 143 1291 199 q 1221 53 1255 87 q 1148 0 1188 18 q 1010 -27 1087 -27 q 863 7 922 -27 q 771 109 803 41 q 740 260 740 176 m 1015 121 q 1053 134 1038 121 q 1073 177 1067 148 q 1078 298 1078 207 q 1061 378 1078 357 q 1018 399 1045 399 q 983 387 999 399 q 961 348 968 374 q 955 243 955 321 q 969 145 955 170 q 1015 121 983 121 z "},"&":{"ha":1337,"x_min":37,"x_max":1335,"o":"m 873 0 l 810 61 q 656 -4 739 18 q 463 -26 574 -26 q 132 68 247 -26 q 37 264 37 144 q 235 513 37 429 q 133 603 172 549 q 95 725 95 658 q 116 824 95 779 q 170 900 136 870 q 252 951 204 930 q 325 974 282 964 q 512 992 411 992 q 691 978 605 992 q 828 938 777 964 q 904 870 878 911 q 930 780 930 829 q 876 648 930 713 q 677 527 821 583 q 809 431 753 477 q 853 494 839 469 q 876 550 867 519 l 1223 550 q 1165 408 1210 482 q 1044 249 1121 334 q 1335 0 1240 91 l 873 0 m 513 635 q 595 696 576 672 q 614 749 614 721 q 588 805 614 783 q 514 828 562 828 q 439 804 467 828 q 410 748 410 779 q 430 696 410 720 q 513 635 449 673 m 616 225 l 428 374 q 378 280 378 330 q 412 211 378 241 q 498 180 446 180 q 557 191 526 180 q 616 225 589 203 z "},"'":{"ha":439,"x_min":104,"x_max":336,"o":"m 290 568 l 149 568 l 104 959 l 104 994 l 336 994 l 336 959 l 290 568 z "},"(":{"ha":515,"x_min":48,"x_max":492,"o":"m 236 1048 l 492 1048 q 380 752 414 886 q 336 410 336 581 q 358 180 336 296 q 425 -62 380 63 q 492 -208 452 -137 l 238 -208 q 153 -42 185 -117 q 75 192 102 76 q 48 419 48 308 q 102 744 48 572 q 236 1048 147 889 z "},")":{"ha":515,"x_min":22,"x_max":467,"o":"m 22 1048 l 278 1048 q 421 716 375 877 q 467 418 467 555 q 439 192 467 310 q 361 -45 411 73 q 277 -208 332 -114 l 22 -208 q 87 -69 60 -140 q 155 173 132 54 q 178 410 178 293 q 136 747 178 579 q 22 1048 102 880 z "},"*":{"ha":746,"x_min":56,"x_max":693,"o":"m 638 926 l 693 738 l 479 701 l 630 545 l 476 434 l 373 629 l 265 433 l 113 547 l 273 701 l 56 738 l 113 924 l 313 825 l 280 1048 l 473 1048 l 441 825 l 638 926 z "},"+":{"ha":833,"x_min":38,"x_max":795,"o":"m 300 0 l 300 262 l 38 262 l 38 496 l 300 496 l 300 758 l 534 758 l 534 496 l 795 496 l 795 262 l 534 262 l 534 0 l 300 0 z "},",":{"ha":515,"x_min":29,"x_max":425,"o":"m 119 265 l 425 265 l 256 -178 l 29 -178 l 119 265 z "},"-":{"ha":515,"x_min":61,"x_max":453,"o":"m 61 246 l 61 482 l 453 482 l 453 246 l 61 246 z "},".":{"ha":515,"x_min":106,"x_max":408,"o":"m 408 265 l 408 0 l 106 0 l 106 265 l 408 265 z "},"/":{"ha":515,"x_min":-1,"x_max":515,"o":"m 306 1043 l 515 1043 l 208 -69 l -1 -69 l 306 1043 z "},":":{"ha":515,"x_min":103,"x_max":406,"o":"m 406 722 l 406 456 l 103 456 l 103 722 l 406 722 m 103 265 l 406 265 l 406 0 l 103 0 l 103 265 z "},";":{"ha":515,"x_min":29,"x_max":425,"o":"m 406 722 l 406 456 l 103 456 l 103 722 l 406 722 m 119 265 l 425 265 l 256 -178 l 29 -178 l 119 265 z "},"<":{"ha":833,"x_min":14,"x_max":820,"o":"m 820 -32 l 14 266 l 14 492 l 820 789 l 820 542 l 316 379 l 820 216 l 820 -32 z "},"=":{"ha":833,"x_min":38,"x_max":795,"o":"m 38 432 l 38 665 l 795 665 l 795 432 l 38 432 m 38 92 l 38 326 l 795 326 l 795 92 l 38 92 z "},">":{"ha":833,"x_min":14,"x_max":820,"o":"m 14 789 l 820 492 l 820 266 l 14 -32 l 14 216 l 517 379 l 14 542 l 14 789 z "},"?":{"ha":798,"x_min":68,"x_max":751,"o":"m 68 715 l 68 951 q 372 1004 228 1004 q 579 969 486 1004 q 711 884 671 935 q 751 755 751 832 q 736 674 751 711 q 681 595 721 637 q 591 518 652 564 q 530 468 546 484 q 507 431 515 452 q 494 359 495 401 l 216 359 q 225 452 218 415 q 245 511 233 488 q 275 551 258 533 q 332 597 282 558 q 391 650 381 635 q 404 690 404 669 q 380 736 404 720 q 272 762 345 762 q 68 715 188 762 m 203 0 l 203 257 l 505 257 l 505 0 l 203 0 z "},"@":{"ha":1111,"x_min":24,"x_max":1088,"o":"m 965 197 l 1020 124 q 798 3 903 39 q 579 -33 694 -33 q 291 36 419 -33 q 94 226 163 104 q 24 486 24 347 q 97 754 24 627 q 306 954 170 881 q 599 1027 441 1027 q 853 970 738 1027 q 1028 815 969 913 q 1088 600 1088 718 q 1052 429 1088 509 q 984 324 1025 368 q 891 252 943 279 q 785 224 840 224 q 692 255 730 224 q 651 341 655 286 q 463 225 583 225 q 322 284 378 225 q 266 448 266 344 q 309 622 266 540 q 419 748 353 705 q 557 791 486 791 q 650 767 613 791 q 701 707 688 743 l 718 766 l 883 766 l 806 500 l 791 455 q 783 416 785 433 q 780 390 780 399 q 793 355 780 368 q 828 342 806 342 q 885 366 857 342 q 952 465 925 399 q 979 609 979 530 q 928 786 979 711 q 789 897 877 860 q 600 935 702 935 q 359 876 469 935 q 191 710 250 817 q 132 481 132 603 q 176 288 132 376 q 264 172 210 220 q 378 98 317 124 q 587 58 473 58 q 800 100 703 58 q 965 197 897 142 m 519 342 q 569 366 547 342 q 629 493 600 401 q 658 616 658 585 q 642 659 658 643 q 602 674 626 674 q 503 591 547 674 q 458 427 458 508 q 475 362 458 382 q 519 342 492 342 z "},"A":{"ha":1158,"x_min":-24,"x_max":1177,"o":"m 318 979 l 831 979 l 1177 0 l 786 0 l 722 214 l 408 214 l 349 0 l -24 0 l 318 979 m 459 444 l 675 444 l 567 760 l 459 444 z "},"B":{"ha":1080,"x_min":69,"x_max":1025,"o":"m 69 979 l 680 979 q 797 970 753 979 q 912 924 866 956 q 983 842 958 892 q 1008 726 1008 793 q 980 609 1008 658 q 900 529 952 561 q 808 492 865 508 q 970 412 914 475 q 1025 254 1025 349 q 981 110 1025 172 q 867 28 937 48 q 667 0 770 0 l 69 0 l 69 979 m 415 786 l 415 591 l 522 591 q 616 617 587 591 q 645 686 645 644 q 628 742 645 717 q 584 776 612 766 q 505 786 556 786 l 415 786 m 415 397 l 415 193 l 516 193 q 621 222 588 193 q 654 295 654 251 q 638 352 654 327 q 595 387 623 377 q 515 397 568 397 l 415 397 z "},"C":{"ha":900,"x_min":27,"x_max":871,"o":"m 868 968 l 868 711 q 680 749 766 749 q 535 717 597 749 q 441 624 473 685 q 410 492 410 563 q 443 362 410 420 q 537 273 475 303 q 678 243 598 243 q 772 253 718 243 q 871 279 825 263 l 871 21 q 734 -8 808 3 q 598 -20 660 -20 q 332 31 454 -20 q 169 137 238 70 q 63 290 100 203 q 27 494 27 376 q 70 711 27 619 q 190 865 112 803 q 359 958 267 927 q 625 998 484 998 q 868 968 745 998 z "},"D":{"ha":1132,"x_min":74,"x_max":1093,"o":"m 74 979 l 538 979 q 725 969 665 979 q 889 915 820 953 q 1003 819 959 878 q 1070 676 1048 760 q 1093 493 1093 593 q 1062 279 1093 380 q 1000 160 1041 212 q 911 79 960 109 q 771 24 863 49 q 557 0 680 0 l 74 0 l 74 979 m 447 747 l 447 236 l 526 236 q 610 251 575 236 q 664 291 646 267 q 697 377 690 324 q 705 502 705 431 q 685 652 705 600 q 627 725 665 703 q 529 747 590 747 l 447 747 z "},"E":{"ha":951,"x_min":64,"x_max":907,"o":"m 64 979 l 897 979 l 897 746 l 418 746 l 418 608 l 876 608 l 876 378 l 418 378 l 418 233 l 907 233 l 907 0 l 64 0 l 64 979 z "},"F":{"ha":926,"x_min":64,"x_max":894,"o":"m 64 979 l 894 979 l 894 746 l 425 746 l 425 589 l 881 589 l 881 349 l 437 349 l 437 0 l 64 0 l 64 979 z "},"G":{"ha":1080,"x_min":27,"x_max":1009,"o":"m 970 972 l 970 707 q 705 764 833 764 q 550 730 620 764 q 444 635 479 696 q 408 481 408 574 q 469 280 408 345 q 641 216 529 216 q 688 220 666 216 l 688 482 l 1009 482 l 1009 26 q 659 -27 846 -27 q 374 16 507 -27 q 218 98 283 45 q 112 210 153 150 q 50 343 72 270 q 27 500 27 416 q 82 739 27 633 q 233 909 137 844 q 416 983 308 958 q 644 1008 525 1008 q 812 997 718 1008 q 970 972 907 987 z "},"H":{"ha":1132,"x_min":68,"x_max":1058,"o":"m 687 979 l 1058 979 l 1058 0 l 687 0 l 687 361 l 439 361 l 439 0 l 68 0 l 68 979 l 439 979 l 439 640 l 687 640 l 687 979 z "},"I":{"ha":515,"x_min":71,"x_max":440,"o":"m 440 979 l 440 0 l 71 0 l 71 979 l 440 979 z "},"J":{"ha":669,"x_min":9,"x_max":601,"o":"m 9 16 l 9 275 q 96 257 51 257 q 172 275 139 257 q 217 320 205 294 q 230 404 230 347 l 230 979 l 601 979 l 601 328 q 591 207 601 248 q 550 111 578 153 q 478 41 522 69 q 373 -3 435 13 q 247 -20 312 -20 q 9 16 144 -20 z "},"K":{"ha":1132,"x_min":64,"x_max":1127,"o":"m 437 598 l 672 979 l 1097 979 l 770 526 l 1127 13 l 1127 0 l 682 0 l 437 421 l 437 0 l 64 0 l 64 979 l 437 979 l 437 598 z "},"L":{"ha":926,"x_min":74,"x_max":903,"o":"m 74 979 l 447 979 l 447 285 l 903 285 l 903 0 l 74 0 l 74 979 z "},"M":{"ha":1492,"x_min":71,"x_max":1424,"o":"m 71 979 l 621 979 l 749 448 l 874 979 l 1424 979 l 1424 0 l 1093 0 l 1085 770 l 892 0 l 582 0 l 392 770 l 384 0 l 71 0 l 71 979 z "},"N":{"ha":1183,"x_min":58,"x_max":1117,"o":"m 58 979 l 612 979 l 804 294 l 804 979 l 1117 979 l 1117 0 l 574 0 l 376 724 l 376 0 l 58 0 l 58 979 z "},"O":{"ha":1132,"x_min":31,"x_max":1098,"o":"m 561 1000 q 810 958 695 1000 q 956 868 892 928 q 1053 731 1019 808 q 1098 487 1098 624 q 1064 277 1098 372 q 964 117 1031 182 q 812 19 897 53 q 565 -25 703 -25 q 317 20 429 -25 q 173 111 236 52 q 77 246 111 171 q 31 490 31 351 q 63 695 31 605 q 160 851 96 785 q 302 952 224 918 q 561 1000 409 1000 m 562 214 q 643 238 609 214 q 695 319 677 262 q 713 486 713 376 q 705 607 713 551 q 680 696 696 663 q 633 748 663 729 q 564 767 604 767 q 487 742 522 767 q 433 653 453 718 q 413 477 413 588 q 463 260 413 330 q 562 214 497 214 z "},"P":{"ha":1106,"x_min":68,"x_max":1065,"o":"m 68 979 l 700 979 q 869 952 802 979 q 1010 838 956 918 q 1065 635 1065 759 q 1044 501 1065 556 q 994 407 1024 446 q 926 341 963 367 q 833 300 889 316 q 694 285 777 285 l 441 285 l 441 0 l 68 0 l 68 979 m 431 751 l 431 508 l 532 508 q 654 542 616 508 q 692 633 692 576 q 659 720 692 690 q 555 751 627 751 l 431 751 z "},"Q":{"ha":1132,"x_min":31,"x_max":1097,"o":"m 882 55 l 1091 -198 l 686 -198 l 555 -24 q 368 2 451 -24 q 173 112 250 39 q 63 281 96 184 q 31 487 31 378 q 65 700 31 606 q 170 862 100 793 q 321 960 240 930 q 562 1000 427 1000 q 755 977 666 1000 q 910 907 844 954 q 1018 795 975 859 q 1070 680 1050 747 q 1097 484 1097 589 q 1067 281 1097 361 q 984 140 1037 200 q 882 55 948 98 m 713 492 q 705 609 713 553 q 679 697 696 665 q 633 748 662 729 q 564 767 604 767 q 487 742 522 767 q 433 653 453 718 q 413 477 413 589 q 463 260 413 330 q 560 214 497 214 q 677 276 640 214 q 713 492 713 339 z "},"R":{"ha":1080,"x_min":64,"x_max":1063,"o":"m 64 979 l 680 979 q 788 972 750 979 q 891 939 844 963 q 971 881 939 916 q 1019 806 1004 846 q 1034 713 1034 766 q 1023 632 1034 668 q 997 570 1013 596 q 959 526 981 545 q 890 482 929 500 q 807 453 863 469 q 899 418 863 440 q 958 367 935 397 q 996 290 980 337 q 1024 170 1005 262 q 1063 0 1052 35 l 675 0 l 643 214 q 606 304 633 279 q 519 330 578 330 l 434 330 l 434 0 l 64 0 l 64 979 m 418 760 l 418 547 l 530 547 q 624 564 598 547 q 667 650 667 592 q 630 738 667 708 q 530 760 602 760 l 418 760 z "},"S":{"ha":951,"x_min":34,"x_max":915,"o":"m 42 29 l 42 281 q 207 233 118 250 q 374 216 296 216 q 518 243 475 216 q 542 283 542 258 q 527 319 542 304 q 458 345 511 334 q 303 380 387 359 q 162 433 218 402 q 93 490 120 456 q 50 571 66 524 q 34 671 34 618 q 57 793 34 740 q 118 882 80 846 q 215 946 156 918 q 300 975 252 964 q 509 996 395 996 q 687 985 594 996 q 852 958 780 975 l 852 709 q 713 745 798 730 q 560 759 629 759 q 445 739 486 759 q 404 689 404 720 q 416 660 404 673 q 463 636 429 646 q 592 607 478 632 q 713 575 673 589 q 810 528 772 553 q 868 473 847 502 q 902 401 888 444 q 915 309 915 358 q 882 159 915 218 q 779 60 848 100 q 610 0 709 20 q 413 -19 512 -19 q 221 -5 322 -19 q 42 29 157 3 z "},"T":{"ha":1055,"x_min":14,"x_max":1039,"o":"m 14 979 l 1039 979 l 1039 693 l 711 693 l 711 0 l 336 0 l 336 693 l 14 693 l 14 979 z "},"U":{"ha":1106,"x_min":68,"x_max":1036,"o":"m 68 979 l 441 979 l 441 370 q 450 294 441 319 q 489 241 461 260 q 559 222 517 222 q 645 256 614 222 q 677 363 677 290 l 677 979 l 1036 979 l 1036 394 q 1006 201 1036 276 q 913 71 977 125 q 756 -7 850 17 q 559 -31 662 -31 q 348 -6 441 -31 q 230 46 286 10 q 142 123 174 83 q 89 225 110 163 q 68 389 68 288 l 68 979 z "},"V":{"ha":1106,"x_min":-18,"x_max":1127,"o":"m -18 979 l 381 979 l 563 389 l 746 979 l 1127 979 l 768 0 l 330 0 l -18 979 z "},"W":{"ha":1544,"x_min":-22,"x_max":1566,"o":"m 603 979 l 960 979 l 1112 357 l 1233 979 l 1566 979 l 1333 0 l 932 0 l 768 630 l 612 0 l 206 0 l -22 979 l 326 979 l 446 357 l 603 979 z "},"X":{"ha":1158,"x_min":-21,"x_max":1168,"o":"m 22 979 l 452 977 l 596 685 l 751 979 l 1143 979 l 818 507 l 1168 0 l 736 0 l 555 331 l 384 0 l -21 0 l 328 507 l 22 979 z "},"Y":{"ha":1055,"x_min":-22,"x_max":1076,"o":"m 707 0 l 339 0 l 339 298 l -22 979 l 397 979 l 550 583 l 690 979 l 1076 979 l 707 298 l 707 0 z "},"Z":{"ha":951,"x_min":26,"x_max":923,"o":"m 907 979 l 907 673 l 447 256 l 923 256 l 923 0 l 26 0 l 26 304 l 503 732 l 43 732 l 43 979 l 907 979 z "},"[":{"ha":540,"x_min":61,"x_max":511,"o":"m 61 -208 l 61 1048 l 511 1048 l 511 859 l 334 859 l 334 -18 l 511 -18 l 511 -208 l 61 -208 z "},"\\":{"ha":514,"x_min":-30,"x_max":544,"o":"m -30 1043 l 179 1043 l 544 -69 l 335 -69 l -30 1043 z "},"]":{"ha":540,"x_min":26,"x_max":476,"o":"m 476 1048 l 476 -208 l 26 -208 l 26 -18 l 203 -18 l 203 859 l 26 859 l 26 1048 l 476 1048 z "},"^":{"ha":833,"x_min":61,"x_max":772,"o":"m 61 382 l 319 994 l 514 994 l 772 382 l 551 382 l 416 710 l 282 382 l 61 382 z "},"_":{"ha":694,"x_min":0,"x_max":694,"o":"m 0 -174 l 0 -104 l 694 -104 l 694 -174 l 0 -174 z "},"`":{"ha":386,"x_min":-117,"x_max":352,"o":"m -117 1045 l 214 1045 l 352 829 l 156 829 l -117 1045 z "},"a":{"ha":900,"x_min":21,"x_max":840,"o":"m 528 0 l 528 103 q 279 -21 444 -21 q 89 41 157 -21 q 21 199 21 104 q 53 322 21 269 q 144 408 85 375 q 249 443 181 429 q 412 456 317 456 q 521 453 454 456 q 482 532 519 502 q 356 562 445 562 q 238 547 299 562 q 104 500 193 536 l 104 701 q 255 733 186 724 q 408 743 324 743 q 635 718 540 743 q 722 682 682 707 q 786 628 762 658 q 824 554 809 599 q 840 431 840 509 l 840 0 l 528 0 m 530 323 q 412 317 446 323 q 360 288 379 310 q 341 237 341 265 q 364 184 341 206 q 420 162 387 162 q 496 198 462 162 q 531 301 531 234 q 530 323 531 309 z "},"b":{"ha":977,"x_min":64,"x_max":944,"o":"m 64 1048 l 415 1048 l 415 635 q 507 715 456 689 q 629 741 558 741 q 794 701 723 741 q 905 576 866 661 q 944 370 944 492 q 907 162 944 254 q 795 25 869 71 q 618 -21 721 -21 q 476 16 530 -21 q 386 132 421 54 l 386 0 l 64 0 l 64 1048 m 490 211 q 551 238 530 211 q 579 379 579 274 q 556 494 579 465 q 494 524 534 524 q 425 486 446 524 q 404 361 404 448 q 415 267 404 296 q 446 224 426 237 q 490 211 466 211 z "},"c":{"ha":772,"x_min":22,"x_max":726,"o":"m 720 715 l 720 500 q 564 537 629 537 q 438 491 486 537 q 391 370 391 445 q 438 238 391 287 q 569 190 486 190 q 726 233 636 190 l 726 16 q 463 -21 593 -21 q 262 11 355 -21 q 141 80 193 35 q 62 182 90 126 q 22 362 22 262 q 163 661 22 553 q 466 747 275 747 q 720 715 599 747 z "},"d":{"ha":977,"x_min":27,"x_max":907,"o":"m 907 1048 l 907 0 l 585 0 l 585 132 q 496 17 552 56 q 353 -21 439 -21 q 215 5 279 -21 q 110 84 152 31 q 47 214 67 137 q 27 371 27 291 q 63 569 27 484 q 171 698 98 655 q 342 741 244 741 q 464 715 413 741 q 556 635 514 690 l 556 1048 l 907 1048 m 480 211 q 528 225 507 211 q 557 270 548 239 q 567 374 567 301 q 543 492 567 460 q 477 524 518 524 q 415 494 437 524 q 392 374 392 464 q 416 243 392 276 q 480 211 439 211 z "},"e":{"ha":874,"x_min":24,"x_max":851,"o":"m 851 278 l 369 278 q 418 198 373 231 q 563 165 463 165 q 798 209 676 165 l 798 22 q 622 -11 698 -1 q 472 -21 546 -21 q 137 83 250 -21 q 24 362 24 188 q 72 563 24 475 q 220 698 120 650 q 450 746 319 746 q 611 723 535 746 q 735 660 688 701 q 806 573 782 620 q 842 450 830 526 q 851 278 851 391 m 361 428 l 541 428 q 517 542 541 512 q 454 572 493 572 q 387 543 413 572 q 361 447 361 513 l 361 428 z "},"f":{"ha":643,"x_min":0,"x_max":656,"o":"m 0 515 l 0 725 l 130 725 l 130 760 q 144 889 130 841 q 199 977 159 937 q 303 1040 239 1018 q 448 1061 367 1061 q 656 1037 541 1061 l 656 838 q 581 852 626 852 q 528 842 550 852 q 496 816 506 831 q 481 776 486 800 q 479 725 479 764 l 640 725 l 640 515 l 486 515 l 486 0 l 130 0 l 130 515 l 0 515 z "},"g":{"ha":977,"x_min":31,"x_max":910,"o":"m 584 570 l 584 725 l 910 725 l 910 68 q 899 -59 910 -18 q 848 -160 884 -113 q 755 -241 811 -207 q 631 -292 699 -275 q 415 -318 528 -318 q 246 -307 338 -318 q 77 -277 153 -296 l 77 -43 q 235 -97 176 -83 q 355 -111 294 -111 q 484 -83 431 -111 q 555 -12 536 -55 q 572 119 573 31 q 471 27 532 60 q 339 -6 411 -6 q 203 24 264 -6 q 104 102 141 55 q 49 219 68 149 q 31 364 31 288 q 59 541 31 458 q 117 647 79 602 q 208 717 155 691 q 341 743 261 743 q 459 723 408 743 q 537 668 509 703 q 584 570 565 633 m 481 214 q 545 244 522 214 q 568 367 568 275 q 543 488 568 454 q 483 515 523 515 q 417 484 440 515 q 394 354 394 452 q 420 239 394 273 q 481 214 439 214 z "},"h":{"ha":951,"x_min":61,"x_max":889,"o":"m 889 0 l 538 0 l 538 429 q 533 483 538 465 q 511 510 527 500 q 475 521 494 521 q 427 500 445 521 q 408 434 408 480 l 408 0 l 61 0 l 61 1048 l 412 1048 l 412 614 q 504 714 454 685 q 631 744 554 744 q 782 711 721 744 q 866 626 842 678 q 889 513 889 573 l 889 0 z "},"i":{"ha":489,"x_min":68,"x_max":418,"o":"m 418 806 l 68 806 l 68 1048 l 418 1048 l 418 806 m 68 0 l 68 725 l 418 725 l 418 0 l 68 0 z "},"j":{"ha":489,"x_min":-64,"x_max":418,"o":"m 418 806 l 67 806 l 67 1048 l 418 1048 l 418 806 m -64 -299 l -64 -88 q -5 -101 -40 -101 q 55 -74 36 -101 q 67 -6 67 -57 l 67 725 l 418 725 l 418 -42 q 403 -165 418 -120 q 351 -244 388 -210 q 252 -299 314 -279 q 117 -319 190 -319 q -64 -299 54 -319 z "},"k":{"ha":1029,"x_min":68,"x_max":1029,"o":"m 422 435 l 624 725 l 1019 725 l 775 404 l 1029 0 l 621 0 l 422 352 l 422 0 l 68 0 l 68 1048 l 422 1048 l 422 435 z "},"l":{"ha":489,"x_min":68,"x_max":418,"o":"m 68 1048 l 418 1048 l 418 0 l 68 0 l 68 1048 z "},"m":{"ha":1417,"x_min":62,"x_max":1352,"o":"m 393 724 l 398 602 q 433 656 414 635 q 521 718 469 695 q 642 740 573 740 q 779 707 720 740 q 869 621 838 675 q 970 710 911 678 q 1115 741 1029 741 q 1253 706 1196 741 q 1331 623 1310 671 q 1352 530 1352 574 l 1352 0 l 1006 0 l 1006 454 q 990 503 1006 486 q 947 519 974 519 q 901 501 919 519 q 882 450 882 482 l 882 0 l 538 0 l 538 441 q 521 501 538 482 q 475 519 504 519 q 428 499 446 519 q 410 441 410 479 l 410 0 l 62 0 l 62 724 l 393 724 z "},"n":{"ha":951,"x_min":61,"x_max":889,"o":"m 61 725 l 389 725 l 389 604 q 634 744 456 744 q 747 726 695 744 q 834 673 798 709 q 870 614 857 650 q 889 513 889 565 l 889 0 l 538 0 l 538 429 q 533 483 538 465 q 511 510 527 500 q 475 521 494 521 q 427 500 445 521 q 408 434 408 480 l 408 0 l 61 0 l 61 725 z "},"o":{"ha":951,"x_min":32,"x_max":918,"o":"m 469 747 q 687 721 591 747 q 771 684 730 709 q 846 614 811 658 q 899 507 880 570 q 918 365 918 445 q 890 193 918 266 q 805 73 861 120 q 679 6 748 26 q 486 -20 586 -20 q 296 2 379 -20 q 155 72 214 24 q 64 193 96 121 q 32 366 32 266 q 53 510 32 444 q 114 621 75 576 q 207 694 153 665 q 295 726 243 713 q 469 747 376 747 m 472 190 q 531 220 511 190 q 551 367 551 250 q 528 517 551 481 q 476 542 512 542 q 418 511 439 542 q 397 370 397 479 q 421 217 397 254 q 472 190 439 190 z "},"p":{"ha":977,"x_min":68,"x_max":947,"o":"m 68 -323 l 68 725 l 389 725 l 389 593 q 478 708 422 669 q 621 746 534 746 q 759 720 696 746 q 865 641 823 694 q 927 511 907 588 q 947 354 947 435 q 912 156 947 242 q 803 27 876 71 q 632 -16 730 -16 q 511 10 562 -16 q 418 90 460 36 l 418 -323 l 68 -323 m 494 515 q 447 500 467 515 q 417 455 427 486 q 407 351 407 424 q 432 233 407 265 q 497 201 456 201 q 562 234 542 201 q 583 351 583 268 q 558 482 583 449 q 494 515 534 515 z "},"q":{"ha":977,"x_min":27,"x_max":907,"o":"m 907 -323 l 556 -323 l 556 90 q 464 9 515 35 q 342 -16 412 -16 q 177 24 248 -16 q 66 149 105 64 q 27 355 27 233 q 64 563 27 471 q 176 700 101 654 q 353 746 250 746 q 495 709 440 746 q 585 593 550 671 l 585 725 l 907 725 l 907 -323 m 480 515 q 420 487 441 515 q 392 346 392 451 q 415 231 392 260 q 477 201 437 201 q 547 239 526 201 q 568 364 568 277 q 556 458 568 429 q 525 502 545 488 q 480 515 505 515 z "},"r":{"ha":694,"x_min":64,"x_max":680,"o":"m 680 732 l 680 446 q 609 457 649 457 q 519 435 562 457 q 451 378 476 413 q 424 315 433 353 q 418 249 418 291 l 418 0 l 64 0 l 64 725 l 395 725 l 395 563 q 492 697 439 657 q 624 736 546 736 q 680 732 648 736 z "},"s":{"ha":772,"x_min":24,"x_max":749,"o":"m 45 22 l 45 231 q 298 165 162 165 q 409 184 377 165 q 427 214 427 195 q 408 244 427 233 q 340 260 393 252 q 214 283 252 273 q 113 327 154 300 q 48 398 72 354 q 24 497 24 442 q 43 588 24 547 q 96 658 62 629 q 177 708 129 687 q 248 730 207 721 q 419 746 326 746 q 692 715 551 746 l 692 516 q 588 547 652 534 q 469 559 523 559 q 368 541 399 559 q 351 512 351 530 q 370 486 351 495 q 463 468 383 479 q 576 447 542 456 q 653 417 625 433 q 702 376 680 400 q 736 320 724 353 q 749 246 749 288 q 731 154 749 195 q 686 87 712 114 q 631 47 665 66 q 526 5 585 20 q 331 -18 433 -18 q 45 22 193 -18 z "},"t":{"ha":643,"x_min":0,"x_max":632,"o":"m 130 725 l 130 890 l 469 997 l 469 725 l 630 725 l 630 515 l 469 515 l 469 341 q 476 271 469 292 q 506 227 484 242 q 556 212 527 212 q 632 225 600 212 l 632 18 q 412 -15 519 -15 q 196 53 267 -15 q 125 256 125 120 l 125 515 l 0 515 l 0 725 l 130 725 z "},"u":{"ha":951,"x_min":61,"x_max":889,"o":"m 61 725 l 412 725 l 412 296 q 417 243 412 260 q 439 215 423 226 q 475 204 456 204 q 524 224 505 204 q 542 291 542 245 l 542 725 l 889 725 l 889 0 l 561 0 l 561 121 q 315 -19 494 -19 q 203 -1 255 -19 q 116 52 152 16 q 80 111 94 75 q 61 212 61 160 l 61 725 z "},"v":{"ha":874,"x_min":-8,"x_max":878,"o":"m 878 725 l 657 0 l 209 0 l -8 725 l 352 725 l 444 249 l 535 725 l 878 725 z "},"w":{"ha":1389,"x_min":-12,"x_max":1395,"o":"m 418 249 l 495 725 l 914 725 l 996 249 l 1077 725 l 1395 725 l 1220 0 l 783 0 l 696 494 l 606 0 l 167 0 l -12 725 l 332 725 l 418 249 z "},"x":{"ha":926,"x_min":-21,"x_max":942,"o":"m 218 389 l -5 725 l 365 725 l 463 511 l 559 725 l 903 725 l 701 394 l 942 0 l 569 0 l 455 231 l 338 0 l -21 0 l 218 389 z "},"y":{"ha":849,"x_min":-19,"x_max":861,"o":"m 524 725 l 861 725 l 640 39 q 586 -110 607 -65 q 527 -207 558 -169 q 459 -268 496 -245 q 367 -305 423 -290 q 239 -320 311 -320 q 31 -296 155 -320 l 31 -90 q 122 -104 78 -104 q 213 -80 184 -104 q 241 -19 241 -56 q 235 14 241 -3 l -19 725 l 345 725 l 436 279 l 524 725 z "},"z":{"ha":849,"x_min":48,"x_max":804,"o":"m 61 725 l 794 725 l 794 425 l 461 211 l 804 211 l 804 0 l 48 0 l 48 302 l 400 515 l 61 515 l 61 725 z "},"{":{"ha":514,"x_min":-6,"x_max":519,"o":"m -6 437 q 59 458 49 452 q 97 484 79 467 q 126 523 116 502 q 141 572 137 543 q 144 638 144 589 l 144 690 q 174 876 144 816 q 284 978 203 937 q 519 1027 364 1019 l 519 877 q 461 858 486 872 q 421 821 436 844 q 400 765 406 798 q 394 682 394 732 l 394 644 q 378 513 394 562 q 331 432 363 465 q 257 381 300 399 q 176 362 224 368 q 266 340 229 356 q 333 291 302 324 q 378 213 363 258 q 394 81 394 168 l 394 42 q 425 -103 394 -62 q 519 -153 455 -143 l 519 -302 q 354 -279 421 -297 q 247 -232 288 -260 q 185 -170 207 -203 q 153 -85 163 -137 q 144 34 144 -33 l 144 86 q 138 171 144 142 q 113 223 132 199 q 67 262 94 248 q -6 288 40 277 l -6 437 z "},"|":{"ha":309,"x_min":37,"x_max":271,"o":"m 37 -347 l 37 1042 l 271 1042 l 271 -347 l 37 -347 z "},"}":{"ha":514,"x_min":-6,"x_max":519,"o":"m 519 437 l 519 288 q 452 266 475 278 q 411 235 428 253 q 385 199 394 218 q 372 151 376 180 q 370 86 370 134 l 370 34 q 340 -152 370 -92 q 230 -253 310 -212 q -6 -302 149 -294 l -6 -153 q 46 -138 24 -149 q 82 -111 68 -127 q 104 -73 96 -96 q 117 -14 113 -50 q 119 42 119 2 l 119 81 q 135 212 119 164 q 181 291 151 259 q 247 340 211 323 q 338 362 283 356 q 216 403 267 370 q 142 492 165 436 q 119 644 119 547 l 119 682 q 109 784 119 745 q 70 846 98 822 q -6 877 42 870 l -6 1027 q 159 1003 92 1021 q 266 957 226 985 q 329 895 307 928 q 360 810 351 862 q 370 690 370 758 l 370 638 q 376 551 370 578 q 403 498 383 523 q 449 460 423 474 q 519 437 461 454 z "},"~":{"ha":833,"x_min":-3,"x_max":837,"o":"m 146 199 l -3 199 q 51 407 16 332 q 135 514 86 481 q 248 547 184 547 q 390 515 305 547 l 473 484 q 595 452 559 452 q 648 473 625 452 q 688 558 671 495 l 837 558 q 729 276 816 379 q 595 211 674 211 q 521 220 561 211 q 403 257 481 229 l 337 281 q 277 301 293 297 q 243 305 260 305 q 186 284 210 305 q 146 199 163 262 z "},"Ä":{"ha":1158,"x_min":-24,"x_max":1177,"o":"m 318 979 l 831 979 l 1177 0 l 786 0 l 722 214 l 408 214 l 349 0 l -24 0 l 318 979 m 459 444 l 675 444 l 567 760 l 459 444 m 269 1045 l 269 1261 l 520 1261 l 520 1045 l 269 1045 m 637 1045 l 637 1261 l 885 1261 l 885 1045 l 637 1045 z "},"Å":{"ha":1158,"x_min":-24,"x_max":1177,"o":"m 318 979 l 831 979 l 1177 0 l 786 0 l 722 214 l 408 214 l 349 0 l -24 0 l 318 979 m 459 444 l 675 444 l 567 760 l 459 444 m 578 1008 q 462 1056 510 1008 q 414 1171 414 1103 q 463 1288 414 1240 q 578 1335 511 1335 q 694 1287 646 1335 q 743 1171 743 1239 q 694 1056 743 1103 q 578 1008 646 1008 m 578 1110 q 622 1128 604 1110 q 640 1171 640 1146 q 622 1215 640 1197 q 578 1232 604 1232 q 535 1215 553 1232 q 517 1171 517 1197 q 535 1128 517 1146 q 578 1110 553 1110 z "},"Ç":{"ha":900,"x_min":27,"x_max":871,"o":"m 608 -20 l 568 -85 q 618 -80 595 -80 q 688 -93 656 -80 q 736 -134 720 -106 q 753 -195 753 -162 q 701 -295 753 -252 q 555 -338 650 -338 q 458 -325 512 -338 q 362 -292 404 -312 l 399 -216 q 477 -243 452 -237 q 527 -250 503 -250 q 581 -234 563 -250 q 600 -199 600 -218 q 583 -167 600 -181 q 536 -153 567 -153 q 486 -161 510 -153 l 441 -117 l 503 -14 q 264 64 361 7 q 137 171 189 109 q 56 310 85 233 q 27 494 27 387 q 70 711 27 619 q 190 865 112 803 q 359 958 267 927 q 625 998 484 998 q 868 968 745 998 l 868 711 q 680 749 766 749 q 535 717 597 749 q 441 624 473 685 q 410 492 410 563 q 443 362 410 420 q 537 273 475 303 q 678 243 598 243 q 772 253 718 243 q 871 279 825 263 l 871 21 q 608 -20 739 -17 z "},"É":{"ha":951,"x_min":64,"x_max":907,"o":"m 64 979 l 897 979 l 897 746 l 418 746 l 418 608 l 876 608 l 876 378 l 418 378 l 418 233 l 907 233 l 907 0 l 64 0 l 64 979 m 469 1261 l 795 1261 l 535 1045 l 324 1045 l 469 1261 z "},"Ñ":{"ha":1183,"x_min":58,"x_max":1117,"o":"m 58 979 l 612 979 l 804 294 l 804 979 l 1117 979 l 1117 0 l 574 0 l 376 724 l 376 0 l 58 0 l 58 979 m 419 1044 l 286 1044 q 353 1204 301 1152 q 476 1257 405 1257 q 559 1245 514 1257 l 628 1227 q 721 1208 704 1208 q 745 1217 734 1208 q 768 1255 755 1225 l 899 1255 q 867 1140 896 1190 q 793 1067 838 1091 q 700 1043 748 1043 q 606 1061 662 1043 l 554 1077 q 475 1093 500 1093 q 437 1079 454 1093 q 419 1044 421 1065 z "},"Ö":{"ha":1132,"x_min":31,"x_max":1098,"o":"m 561 1000 q 810 958 695 1000 q 956 868 892 928 q 1053 731 1019 808 q 1098 487 1098 624 q 1064 277 1098 372 q 964 117 1031 182 q 812 19 897 53 q 565 -25 703 -25 q 317 20 429 -25 q 173 111 236 52 q 77 246 111 171 q 31 490 31 351 q 63 695 31 605 q 160 851 96 785 q 302 952 224 918 q 561 1000 409 1000 m 562 214 q 643 238 609 214 q 695 319 677 262 q 713 486 713 376 q 705 607 713 551 q 680 696 696 663 q 633 748 663 729 q 564 767 604 767 q 487 742 522 767 q 433 653 453 718 q 413 477 413 588 q 463 260 413 330 q 562 214 497 214 m 257 1044 l 257 1260 l 508 1260 l 508 1044 l 257 1044 m 625 1044 l 625 1260 l 873 1260 l 873 1044 l 625 1044 z "},"Ü":{"ha":1106,"x_min":68,"x_max":1036,"o":"m 68 979 l 441 979 l 441 370 q 450 294 441 319 q 489 241 461 260 q 559 222 517 222 q 645 256 614 222 q 677 363 677 290 l 677 979 l 1036 979 l 1036 394 q 1006 201 1036 276 q 913 71 977 125 q 756 -7 850 17 q 559 -31 662 -31 q 348 -6 441 -31 q 230 46 286 10 q 142 123 174 83 q 89 225 110 163 q 68 389 68 288 l 68 979 m 244 1045 l 244 1261 l 495 1261 l 495 1045 l 244 1045 m 612 1045 l 612 1261 l 860 1261 l 860 1045 l 612 1045 z "},"á":{"ha":900,"x_min":21,"x_max":840,"o":"m 528 0 l 528 103 q 279 -21 444 -21 q 89 41 157 -21 q 21 199 21 104 q 53 322 21 269 q 144 408 85 375 q 249 443 181 429 q 412 456 317 456 q 521 453 454 456 q 482 532 519 502 q 356 562 445 562 q 238 547 299 562 q 104 500 193 536 l 104 701 q 255 733 186 724 q 408 743 324 743 q 635 718 540 743 q 722 682 682 707 q 786 628 762 658 q 824 554 809 599 q 840 431 840 509 l 840 0 l 528 0 m 530 323 q 412 317 446 323 q 360 288 379 310 q 341 237 341 265 q 364 184 341 206 q 420 162 387 162 q 496 198 462 162 q 531 301 531 234 q 530 323 531 309 m 456 1045 l 783 1045 l 523 829 l 312 829 l 456 1045 z "},"à":{"ha":900,"x_min":21,"x_max":840,"o":"m 528 0 l 528 103 q 279 -21 444 -21 q 89 41 157 -21 q 21 199 21 104 q 53 322 21 269 q 144 408 85 375 q 249 443 181 429 q 412 456 317 456 q 521 453 454 456 q 482 532 519 502 q 356 562 445 562 q 238 547 299 562 q 104 500 193 536 l 104 701 q 255 733 186 724 q 408 743 324 743 q 635 718 540 743 q 722 682 682 707 q 786 628 762 658 q 824 554 809 599 q 840 431 840 509 l 840 0 l 528 0 m 530 323 q 412 317 446 323 q 360 288 379 310 q 341 237 341 265 q 364 184 341 206 q 420 162 387 162 q 496 198 462 162 q 531 301 531 234 q 530 323 531 309 m 165 1045 l 496 1045 l 635 829 l 439 829 l 165 1045 z "},"â":{"ha":900,"x_min":21,"x_max":840,"o":"m 528 0 l 528 103 q 279 -21 444 -21 q 89 41 157 -21 q 21 199 21 104 q 53 322 21 269 q 144 408 85 375 q 249 443 181 429 q 412 456 317 456 q 521 453 454 456 q 482 532 519 502 q 356 562 445 562 q 238 547 299 562 q 104 500 193 536 l 104 701 q 255 733 186 724 q 408 743 324 743 q 635 718 540 743 q 722 682 682 707 q 786 628 762 658 q 824 554 809 599 q 840 431 840 509 l 840 0 l 528 0 m 530 323 q 412 317 446 323 q 360 288 379 310 q 341 237 341 265 q 364 184 341 206 q 420 162 387 162 q 496 198 462 162 q 531 301 531 234 q 530 323 531 309 m 334 1043 l 612 1043 l 770 829 l 569 829 l 469 956 l 378 829 l 174 829 l 334 1043 z "},"ä":{"ha":900,"x_min":21,"x_max":840,"o":"m 528 0 l 528 103 q 279 -21 444 -21 q 89 41 157 -21 q 21 199 21 104 q 53 322 21 269 q 144 408 85 375 q 249 443 181 429 q 412 456 317 456 q 521 453 454 456 q 482 532 519 502 q 356 562 445 562 q 238 547 299 562 q 104 500 193 536 l 104 701 q 255 733 186 724 q 408 743 324 743 q 635 718 540 743 q 722 682 682 707 q 786 628 762 658 q 824 554 809 599 q 840 431 840 509 l 840 0 l 528 0 m 530 323 q 412 317 446 323 q 360 288 379 310 q 341 237 341 265 q 364 184 341 206 q 420 162 387 162 q 496 198 462 162 q 531 301 531 234 q 530 323 531 309 m 167 829 l 167 1045 l 418 1045 l 418 829 l 167 829 m 535 829 l 535 1045 l 783 1045 l 783 829 l 535 829 z "},"ã":{"ha":900,"x_min":21,"x_max":840,"o":"m 528 0 l 528 103 q 279 -21 444 -21 q 89 41 157 -21 q 21 199 21 104 q 53 322 21 269 q 144 408 85 375 q 249 443 181 429 q 412 456 317 456 q 521 453 454 456 q 482 532 519 502 q 356 562 445 562 q 238 547 299 562 q 104 500 193 536 l 104 701 q 255 733 186 724 q 408 743 324 743 q 635 718 540 743 q 722 682 682 707 q 786 628 762 658 q 824 554 809 599 q 840 431 840 509 l 840 0 l 528 0 m 530 323 q 412 317 446 323 q 360 288 379 310 q 341 237 341 265 q 364 184 341 206 q 420 162 387 162 q 496 198 462 162 q 531 301 531 234 q 530 323 531 309 m 304 829 l 170 829 q 238 989 186 937 q 361 1042 290 1042 q 444 1030 399 1042 l 513 1013 q 606 994 589 994 q 630 1002 619 994 q 652 1040 640 1010 l 784 1040 q 752 925 781 975 q 678 852 723 876 q 585 828 633 828 q 490 846 547 828 l 439 862 q 360 878 385 878 q 322 864 338 878 q 304 829 306 850 z "},"å":{"ha":900,"x_min":21,"x_max":840,"o":"m 528 0 l 528 103 q 279 -21 444 -21 q 89 41 157 -21 q 21 199 21 104 q 53 322 21 269 q 144 408 85 375 q 249 443 181 429 q 412 456 317 456 q 521 453 454 456 q 482 532 519 502 q 356 562 445 562 q 238 547 299 562 q 104 500 193 536 l 104 701 q 255 733 186 724 q 408 743 324 743 q 635 718 540 743 q 722 682 682 707 q 786 628 762 658 q 824 554 809 599 q 840 431 840 509 l 840 0 l 528 0 m 530 323 q 412 317 446 323 q 360 288 379 310 q 341 237 341 265 q 364 184 341 206 q 420 162 387 162 q 496 198 462 162 q 531 301 531 234 q 530 323 531 309 m 476 806 q 360 853 408 806 q 312 969 312 901 q 360 1085 312 1038 q 476 1133 408 1133 q 592 1085 544 1133 q 640 969 640 1037 q 592 853 640 901 q 476 806 544 806 m 476 908 q 519 926 501 908 q 537 969 537 944 q 519 1013 537 995 q 476 1030 501 1030 q 433 1013 451 1030 q 415 969 415 995 q 433 926 415 944 q 476 908 450 908 z "},"ç":{"ha":772,"x_min":22,"x_max":726,"o":"m 494 -20 l 454 -85 q 504 -80 481 -80 q 574 -93 542 -80 q 622 -134 606 -106 q 639 -195 639 -162 q 587 -295 639 -252 q 441 -338 536 -338 q 344 -325 398 -338 q 248 -292 290 -312 l 285 -216 q 363 -243 338 -237 q 413 -250 389 -250 q 467 -234 449 -250 q 486 -199 486 -218 q 469 -167 486 -181 q 422 -153 453 -153 q 372 -161 396 -153 l 327 -117 l 387 -17 q 192 44 271 -3 q 67 173 113 90 q 22 362 22 256 q 164 662 22 553 q 466 747 275 747 q 720 715 599 747 l 720 500 q 564 537 629 537 q 438 491 486 537 q 391 370 391 445 q 438 238 391 287 q 569 190 486 190 q 726 233 636 190 l 726 16 q 494 -20 603 -18 z "},"é":{"ha":874,"x_min":24,"x_max":851,"o":"m 851 278 l 369 278 q 418 198 373 231 q 563 165 463 165 q 798 209 676 165 l 798 22 q 622 -11 698 -1 q 472 -21 546 -21 q 137 83 250 -21 q 24 362 24 188 q 72 563 24 475 q 220 698 120 650 q 450 746 319 746 q 611 723 535 746 q 735 660 688 701 q 806 573 782 620 q 842 450 830 526 q 851 278 851 391 m 361 428 l 541 428 q 517 542 541 512 q 454 572 493 572 q 387 543 413 572 q 361 447 361 513 l 361 428 m 431 1045 l 758 1045 l 497 829 l 286 829 l 431 1045 z "},"è":{"ha":874,"x_min":24,"x_max":851,"o":"m 851 278 l 369 278 q 418 198 373 231 q 563 165 463 165 q 798 209 676 165 l 798 22 q 622 -11 698 -1 q 472 -21 546 -21 q 137 83 250 -21 q 24 362 24 188 q 72 563 24 475 q 220 698 120 650 q 450 746 319 746 q 611 723 535 746 q 735 660 688 701 q 806 573 782 620 q 842 450 830 526 q 851 278 851 391 m 361 428 l 541 428 q 517 542 541 512 q 454 572 493 572 q 387 543 413 572 q 361 447 361 513 l 361 428 m 140 1045 l 471 1045 l 609 829 l 413 829 l 140 1045 z "},"ê":{"ha":874,"x_min":24,"x_max":851,"o":"m 851 278 l 369 278 q 418 198 373 231 q 563 165 463 165 q 798 209 676 165 l 798 22 q 622 -11 698 -1 q 472 -21 546 -21 q 137 83 250 -21 q 24 362 24 188 q 72 563 24 475 q 220 698 120 650 q 450 746 319 746 q 611 723 535 746 q 735 660 688 701 q 806 573 782 620 q 842 450 830 526 q 851 278 851 391 m 361 428 l 541 428 q 517 542 541 512 q 454 572 493 572 q 387 543 413 572 q 361 447 361 513 l 361 428 m 309 1043 l 587 1043 l 744 829 l 543 829 l 444 956 l 352 829 l 148 829 l 309 1043 z "},"ë":{"ha":874,"x_min":24,"x_max":851,"o":"m 851 278 l 369 278 q 418 198 373 231 q 563 165 463 165 q 798 209 676 165 l 798 22 q 622 -11 698 -1 q 472 -21 546 -21 q 137 83 250 -21 q 24 362 24 188 q 72 563 24 475 q 220 698 120 650 q 450 746 319 746 q 611 723 535 746 q 735 660 688 701 q 806 573 782 620 q 842 450 830 526 q 851 278 851 391 m 361 428 l 541 428 q 517 542 541 512 q 454 572 493 572 q 387 543 413 572 q 361 447 361 513 l 361 428 m 142 829 l 142 1045 l 393 1045 l 393 829 l 142 829 m 510 829 l 510 1045 l 758 1045 l 758 829 l 510 829 z "},"í":{"ha":489,"x_min":68,"x_max":551,"o":"m 68 0 l 68 725 l 418 725 l 418 0 l 68 0 m 224 1045 l 551 1045 l 291 829 l 80 829 l 224 1045 z "},"ì":{"ha":489,"x_min":-66,"x_max":418,"o":"m 68 0 l 68 725 l 418 725 l 418 0 l 68 0 m -66 1045 l 265 1045 l 404 829 l 208 829 l -66 1045 z "},"î":{"ha":489,"x_min":-58,"x_max":538,"o":"m 68 0 l 68 725 l 418 725 l 418 0 l 68 0 m 103 1043 l 381 1043 l 538 829 l 338 829 l 238 956 l 146 829 l -58 829 l 103 1043 z "},"ï":{"ha":489,"x_min":-64,"x_max":551,"o":"m 68 0 l 68 725 l 418 725 l 418 0 l 68 0 m -64 829 l -64 1045 l 186 1045 l 186 829 l -64 829 m 304 829 l 304 1045 l 551 1045 l 551 829 l 304 829 z "},"ñ":{"ha":951,"x_min":61,"x_max":889,"o":"m 61 725 l 389 725 l 389 604 q 634 744 456 744 q 747 726 695 744 q 834 673 798 709 q 870 614 857 650 q 889 513 889 565 l 889 0 l 538 0 l 538 429 q 533 483 538 465 q 511 510 527 500 q 475 521 494 521 q 427 500 445 521 q 408 434 408 480 l 408 0 l 61 0 l 61 725 m 317 829 l 183 829 q 251 989 199 937 q 374 1042 302 1042 q 456 1030 412 1042 l 526 1013 q 618 994 602 994 q 643 1002 632 994 q 665 1040 653 1010 l 797 1040 q 765 925 793 975 q 691 852 736 876 q 597 828 646 828 q 503 846 559 828 l 452 862 q 373 878 398 878 q 335 864 351 878 q 317 829 319 850 z "},"ó":{"ha":951,"x_min":32,"x_max":918,"o":"m 469 747 q 687 721 591 747 q 771 684 730 709 q 846 614 811 658 q 899 507 880 570 q 918 365 918 445 q 890 193 918 266 q 805 73 861 120 q 679 6 748 26 q 486 -20 586 -20 q 296 2 379 -20 q 155 72 214 24 q 64 193 96 121 q 32 366 32 266 q 53 510 32 444 q 114 621 75 576 q 207 694 153 665 q 295 726 243 713 q 469 747 376 747 m 472 190 q 531 220 511 190 q 551 367 551 250 q 528 517 551 481 q 476 542 512 542 q 418 511 439 542 q 397 370 397 479 q 421 217 397 254 q 472 190 439 190 m 456 1046 l 783 1046 l 522 830 l 311 830 l 456 1046 z "},"ò":{"ha":951,"x_min":32,"x_max":918,"o":"m 469 747 q 687 721 591 747 q 771 684 730 709 q 846 614 811 658 q 899 507 880 570 q 918 365 918 445 q 890 193 918 266 q 805 73 861 120 q 679 6 748 26 q 486 -20 586 -20 q 296 2 379 -20 q 155 72 214 24 q 64 193 96 121 q 32 366 32 266 q 53 510 32 444 q 114 621 75 576 q 207 694 153 665 q 295 726 243 713 q 469 747 376 747 m 472 190 q 531 220 511 190 q 551 367 551 250 q 528 517 551 481 q 476 542 512 542 q 418 511 439 542 q 397 370 397 479 q 421 217 397 254 q 472 190 439 190 m 165 1046 l 496 1046 l 634 830 l 438 830 l 165 1046 z "},"ô":{"ha":951,"x_min":32,"x_max":918,"o":"m 469 747 q 687 721 591 747 q 771 684 730 709 q 846 614 811 658 q 899 507 880 570 q 918 365 918 445 q 890 193 918 266 q 805 73 861 120 q 679 6 748 26 q 486 -20 586 -20 q 296 2 379 -20 q 155 72 214 24 q 64 193 96 121 q 32 366 32 266 q 53 510 32 444 q 114 621 75 576 q 207 694 153 665 q 295 726 243 713 q 469 747 376 747 m 472 190 q 531 220 511 190 q 551 367 551 250 q 528 517 551 481 q 476 542 512 542 q 418 511 439 542 q 397 370 397 479 q 421 217 397 254 q 472 190 439 190 m 334 1044 l 612 1044 l 769 830 l 568 830 l 469 957 l 377 830 l 173 830 l 334 1044 z "},"ö":{"ha":951,"x_min":32,"x_max":918,"o":"m 469 747 q 687 721 591 747 q 771 684 730 709 q 846 614 811 658 q 899 507 880 570 q 918 365 918 445 q 890 193 918 266 q 805 73 861 120 q 679 6 748 26 q 486 -20 586 -20 q 296 2 379 -20 q 155 72 214 24 q 64 193 96 121 q 32 366 32 266 q 53 510 32 444 q 114 621 75 576 q 207 694 153 665 q 295 726 243 713 q 469 747 376 747 m 472 190 q 531 220 511 190 q 551 367 551 250 q 528 517 551 481 q 476 542 512 542 q 418 511 439 542 q 397 370 397 479 q 421 217 397 254 q 472 190 439 190 m 167 830 l 167 1046 l 418 1046 l 418 830 l 167 830 m 535 830 l 535 1046 l 783 1046 l 783 830 l 535 830 z "},"õ":{"ha":951,"x_min":32,"x_max":918,"o":"m 469 747 q 687 721 591 747 q 771 684 730 709 q 846 614 811 658 q 899 507 880 570 q 918 365 918 445 q 890 193 918 266 q 805 73 861 120 q 679 6 748 26 q 486 -20 586 -20 q 296 2 379 -20 q 155 72 214 24 q 64 193 96 121 q 32 366 32 266 q 53 510 32 444 q 114 621 75 576 q 207 694 153 665 q 295 726 243 713 q 469 747 376 747 m 472 190 q 531 220 511 190 q 551 367 551 250 q 528 517 551 481 q 476 542 512 542 q 418 511 439 542 q 397 370 397 479 q 421 217 397 254 q 472 190 439 190 m 303 830 l 170 830 q 237 990 185 938 q 360 1042 289 1042 q 443 1031 398 1042 l 512 1013 q 605 994 588 994 q 629 1002 618 994 q 652 1041 640 1010 l 783 1041 q 751 926 780 975 q 677 853 722 877 q 584 829 632 829 q 490 846 546 829 l 438 863 q 359 879 385 879 q 321 865 338 879 q 303 830 305 850 z "},"ú":{"ha":951,"x_min":61,"x_max":889,"o":"m 61 725 l 412 725 l 412 296 q 417 243 412 260 q 439 215 423 226 q 475 204 456 204 q 524 224 505 204 q 542 291 542 245 l 542 725 l 889 725 l 889 0 l 561 0 l 561 121 q 315 -19 494 -19 q 203 -1 255 -19 q 116 52 152 16 q 80 111 94 75 q 61 212 61 160 l 61 725 m 456 1045 l 783 1045 l 522 829 l 311 829 l 456 1045 z "},"ù":{"ha":951,"x_min":61,"x_max":889,"o":"m 61 725 l 412 725 l 412 296 q 417 243 412 260 q 439 215 423 226 q 475 204 456 204 q 524 224 505 204 q 542 291 542 245 l 542 725 l 889 725 l 889 0 l 561 0 l 561 121 q 315 -19 494 -19 q 203 -1 255 -19 q 116 52 152 16 q 80 111 94 75 q 61 212 61 160 l 61 725 m 165 1045 l 496 1045 l 635 829 l 439 829 l 165 1045 z "},"û":{"ha":951,"x_min":61,"x_max":889,"o":"m 61 725 l 412 725 l 412 296 q 417 243 412 260 q 439 215 423 226 q 475 204 456 204 q 524 224 505 204 q 542 291 542 245 l 542 725 l 889 725 l 889 0 l 561 0 l 561 121 q 315 -19 494 -19 q 203 -1 255 -19 q 116 52 152 16 q 80 111 94 75 q 61 212 61 160 l 61 725 m 334 1043 l 612 1043 l 769 829 l 568 829 l 469 956 l 377 829 l 173 829 l 334 1043 z "},"ü":{"ha":951,"x_min":61,"x_max":889,"o":"m 61 725 l 412 725 l 412 296 q 417 243 412 260 q 439 215 423 226 q 475 204 456 204 q 524 224 505 204 q 542 291 542 245 l 542 725 l 889 725 l 889 0 l 561 0 l 561 121 q 315 -19 494 -19 q 203 -1 255 -19 q 116 52 152 16 q 80 111 94 75 q 61 212 61 160 l 61 725 m 167 829 l 167 1045 l 418 1045 l 418 829 l 167 829 m 535 829 l 535 1045 l 783 1045 l 783 829 l 535 829 z "},"†":{"ha":900,"x_min":53,"x_max":848,"o":"m 304 802 l 304 1048 l 598 1048 l 598 802 l 848 802 l 848 578 l 598 578 l 598 -153 l 304 -153 l 304 578 l 53 578 l 53 802 l 304 802 z "},"°":{"ha":555,"x_min":46,"x_max":509,"o":"m 278 1029 q 392 999 336 1029 q 478 913 447 969 q 509 798 509 857 q 478 682 509 738 q 393 596 448 627 q 277 566 338 566 q 162 596 217 566 q 77 682 107 627 q 46 798 46 737 q 77 913 46 858 q 164 999 109 969 q 278 1029 219 1029 m 278 887 q 214 861 240 887 q 188 798 188 834 q 214 734 188 760 q 277 707 240 707 q 341 734 315 707 q 368 798 368 760 q 341 861 368 835 q 278 887 315 887 z "},"¢":{"ha":798,"x_min":42,"x_max":753,"o":"m 395 759 l 395 926 l 554 926 l 554 765 l 659 751 q 753 730 689 747 l 753 515 q 591 555 661 555 q 462 517 513 555 q 411 391 411 479 q 432 295 411 335 q 495 233 452 254 q 589 212 537 212 q 753 254 669 212 l 753 42 q 551 3 652 7 l 551 -161 l 396 -161 l 396 9 q 277 34 332 14 q 175 92 223 53 q 98 178 126 132 q 56 275 69 224 q 42 389 42 327 q 70 541 42 478 q 143 648 98 603 q 241 718 189 694 q 395 759 294 742 z "},"£":{"ha":900,"x_min":58,"x_max":842,"o":"m 511 589 l 723 589 l 723 391 l 511 391 l 511 217 l 842 217 l 842 0 l 58 0 l 58 217 l 178 217 l 178 391 l 58 391 l 58 589 l 178 589 l 178 657 q 207 820 178 764 q 286 915 235 876 q 417 977 337 954 q 595 1000 497 1000 q 840 969 702 1000 l 840 755 q 751 778 800 770 q 670 786 703 786 q 609 778 637 786 q 562 756 581 769 q 533 728 543 743 q 516 686 522 713 q 511 625 511 666 l 511 589 z "},"§":{"ha":874,"x_min":43,"x_max":831,"o":"m 724 1029 l 724 831 q 525 862 616 862 q 416 842 446 862 q 395 808 395 829 q 414 774 395 791 q 519 730 433 757 q 665 679 630 694 q 760 618 727 650 q 812 545 793 587 q 831 451 831 502 q 802 346 831 391 q 711 264 773 300 q 806 91 806 190 q 787 4 806 45 q 745 -60 768 -36 q 686 -103 721 -84 q 577 -142 639 -129 q 375 -164 480 -164 q 100 -130 226 -164 l 100 74 q 213 46 148 58 q 334 34 279 34 q 469 55 434 34 q 490 88 490 66 q 477 118 490 103 q 421 146 463 133 q 221 218 285 190 q 124 275 157 246 q 67 351 92 303 q 43 453 43 398 q 80 567 43 516 q 185 648 116 618 q 109 714 135 675 q 82 812 82 753 q 111 921 82 874 q 195 1000 140 968 q 320 1046 250 1032 q 465 1059 390 1059 q 566 1054 515 1059 q 724 1029 616 1048 m 349 564 q 304 486 304 534 q 320 443 304 463 q 399 394 337 422 q 540 339 432 379 q 578 417 578 379 q 571 451 578 437 q 549 476 564 465 q 477 511 534 486 l 349 564 z "},"•":{"ha":694,"x_min":96,"x_max":598,"o":"m 347 747 q 471 715 410 747 q 565 623 531 683 q 598 496 598 562 q 565 372 598 432 q 472 279 532 312 q 347 246 413 246 q 222 279 281 246 q 130 372 163 312 q 96 496 96 432 q 130 623 96 562 q 224 715 164 683 q 347 747 284 747 z "},"¶":{"ha":861,"x_min":-16,"x_max":842,"o":"m 842 844 l 776 844 l 776 -264 l 576 -264 l 576 844 l 464 844 l 464 -264 l 264 -264 l 264 322 q 45 432 123 325 q -16 639 -16 518 q 19 803 -16 730 q 107 918 54 876 q 217 976 160 959 q 355 994 275 994 l 842 994 l 842 844 z "},"ß":{"ha":1029,"x_min":61,"x_max":997,"o":"m 61 0 l 61 690 q 81 835 61 780 q 135 929 100 890 q 219 997 170 968 q 329 1040 269 1026 q 505 1059 408 1059 q 690 1041 603 1059 q 831 986 777 1023 q 914 897 886 949 q 942 763 942 844 q 901 616 942 671 q 764 530 859 561 q 944 430 892 494 q 997 264 997 366 q 961 116 997 180 q 847 15 925 52 q 669 -21 769 -21 q 591 -16 631 -21 q 486 6 564 -12 l 486 196 q 544 186 511 186 q 633 218 601 186 q 665 298 665 249 q 644 367 665 340 q 592 402 623 394 q 486 418 562 411 l 486 611 q 581 642 549 611 q 612 734 612 673 q 583 830 612 798 q 507 863 553 863 q 459 851 480 863 q 427 818 439 839 q 411 762 416 798 q 408 703 408 745 l 408 0 l 61 0 z "},"®":{"ha":1112,"x_min":36,"x_max":1095,"o":"m 566 1027 q 826 958 699 1027 q 1024 762 953 890 q 1095 496 1095 635 q 1068 330 1095 410 q 995 187 1042 250 q 884 73 949 123 q 736 -5 819 23 q 566 -33 653 -33 q 353 11 450 -33 q 191 122 256 56 q 88 267 126 188 q 36 496 36 376 q 107 762 36 635 q 306 958 178 890 q 566 1027 433 1027 m 566 926 q 354 871 457 926 q 194 712 252 815 q 136 496 136 609 q 178 311 136 399 q 261 193 209 247 q 393 103 314 139 q 566 67 471 67 q 702 89 635 67 q 822 152 768 111 q 913 243 875 192 q 973 360 951 295 q 996 496 996 425 q 950 689 996 597 q 868 802 919 751 q 737 890 818 854 q 566 926 656 926 m 338 790 l 553 790 q 706 772 652 790 q 795 709 761 755 q 821 616 821 675 q 776 507 821 547 q 676 471 743 478 q 733 454 712 465 q 779 417 761 439 q 804 370 797 395 q 812 296 810 345 q 815 233 814 248 q 822 203 817 219 l 664 203 q 658 228 659 217 q 655 273 656 238 q 647 354 653 334 q 628 386 641 374 q 593 402 614 397 q 538 406 579 406 l 505 406 l 505 203 l 338 203 l 338 790 m 505 522 l 546 522 q 629 543 604 522 q 654 600 654 564 q 646 636 654 621 q 622 659 637 650 q 586 670 607 668 q 547 673 554 673 l 505 673 l 505 522 z "},"©":{"ha":1111,"x_min":26,"x_max":1085,"o":"m 555 1027 q 816 958 689 1027 q 1014 762 943 890 q 1085 496 1085 635 q 1058 330 1085 410 q 985 187 1031 250 q 873 73 939 123 q 726 -5 808 23 q 555 -33 643 -33 q 343 11 440 -33 q 181 122 246 56 q 78 267 116 188 q 26 496 26 376 q 97 762 26 635 q 295 958 168 890 q 555 1027 422 1027 m 555 926 q 344 871 447 926 q 183 712 241 815 q 125 496 125 609 q 168 311 125 399 q 251 193 199 247 q 382 103 304 139 q 555 67 461 67 q 691 89 625 67 q 811 152 758 111 q 903 243 865 192 q 963 360 941 295 q 985 496 985 425 q 940 689 985 597 q 858 802 909 751 q 727 890 808 854 q 555 926 646 926 m 825 416 q 743 248 813 312 q 567 184 672 184 q 355 272 441 184 q 269 496 269 360 q 305 657 269 583 q 407 772 341 732 q 554 812 472 812 q 739 749 661 812 q 825 579 817 686 l 680 579 q 642 652 672 627 q 566 678 611 678 q 480 635 515 678 q 445 501 445 592 q 480 361 445 405 q 573 317 516 317 q 644 340 618 317 q 680 416 671 363 l 825 416 z "},"™":{"ha":1389,"x_min":133,"x_max":1220,"o":"m 277 493 l 277 877 l 133 877 l 133 994 l 572 994 l 572 877 l 427 877 l 427 493 l 277 493 m 620 493 l 620 994 l 840 994 l 920 726 l 1000 994 l 1220 994 l 1220 493 l 1086 493 l 1086 861 l 975 493 l 864 493 l 753 861 l 753 493 l 620 493 z "},"´":{"ha":386,"x_min":29,"x_max":500,"o":"m 174 1045 l 500 1045 l 240 829 l 29 829 l 174 1045 z "},"¨":{"ha":386,"x_min":-116,"x_max":500,"o":"m -116 829 l -116 1045 l 135 1045 l 135 829 l -116 829 m 252 829 l 252 1045 l 500 1045 l 500 829 l 252 829 z "},"≠":{"ha":833,"x_min":38,"x_max":795,"o":"m 687 665 l 795 665 l 795 432 l 572 432 l 520 326 l 795 326 l 795 93 l 406 93 l 297 -129 l 87 -29 l 147 93 l 38 93 l 38 326 l 262 326 l 313 432 l 38 432 l 38 665 l 428 665 l 536 886 l 746 785 l 687 665 z "},"Æ":{"ha":1492,"x_min":-24,"x_max":1450,"o":"m 321 979 l 1440 979 l 1440 744 l 897 744 l 942 608 l 1414 608 l 1414 378 l 1014 378 l 1061 233 l 1450 233 l 1450 0 l 778 0 l 718 211 l 405 211 l 342 0 l -24 0 l 321 979 m 456 440 l 673 440 l 567 751 l 456 440 z "},"Ø":{"ha":1132,"x_min":31,"x_max":1098,"o":"m 165 119 q 31 489 31 258 q 58 680 31 595 q 139 827 85 764 q 260 930 192 890 q 387 980 311 961 q 555 1000 463 1000 q 836 948 713 1000 l 972 1116 l 1095 1019 l 965 860 q 1066 693 1035 790 q 1098 487 1098 597 q 1064 276 1098 371 q 965 118 1030 181 q 817 21 900 56 q 567 -25 707 -25 q 292 30 413 -25 l 156 -138 l 34 -42 l 165 119 m 415 428 l 658 728 q 564 767 621 767 q 487 742 522 767 q 432 649 452 716 q 413 483 413 583 q 415 428 413 457 m 711 547 l 471 250 q 562 214 505 214 q 674 273 635 214 q 713 486 713 332 q 711 547 713 520 z "},"∞":{"ha":1222,"x_min":56,"x_max":1166,"o":"m 611 506 q 691 604 655 569 q 775 660 728 639 q 884 681 823 681 q 1067 621 992 681 q 1166 383 1166 540 q 1087 160 1166 243 q 884 77 1008 77 q 745 114 812 77 q 611 241 678 151 q 479 114 541 149 q 346 78 418 78 q 137 161 218 78 q 56 383 56 244 q 134 601 56 521 q 338 681 212 681 q 440 662 395 681 q 524 609 486 644 q 611 506 561 575 m 721 376 q 881 269 797 269 q 955 298 926 269 q 983 380 983 328 q 953 459 983 429 q 878 490 924 490 q 721 376 803 490 m 500 376 q 420 459 463 429 q 340 490 378 490 q 269 459 298 490 q 239 378 239 428 q 268 299 239 329 q 342 270 297 270 q 500 376 423 270 z "},"±":{"ha":833,"x_min":38,"x_max":795,"o":"m 300 253 l 300 389 l 38 389 l 38 606 l 300 606 l 300 758 l 534 758 l 534 606 l 795 606 l 795 389 l 534 389 l 534 253 l 300 253 m 38 0 l 38 216 l 795 216 l 795 0 l 38 0 z "},"≤":{"ha":833,"x_min":38,"x_max":795,"o":"m 38 478 l 38 695 l 795 905 l 795 678 l 342 585 l 795 478 l 795 251 l 38 478 m 795 216 l 795 0 l 38 0 l 38 216 l 795 216 z "},"≥":{"ha":833,"x_min":38,"x_max":795,"o":"m 795 677 l 795 460 l 38 251 l 38 477 l 491 570 l 38 677 l 38 905 l 795 677 m 795 216 l 795 0 l 38 0 l 38 216 l 795 216 z "},"¥":{"ha":1028,"x_min":5,"x_max":1021,"o":"m 1021 981 l 777 501 l 915 501 l 915 370 l 710 370 l 693 335 l 693 273 l 915 273 l 915 139 l 693 139 l 693 0 l 333 0 l 333 139 l 112 139 l 112 273 l 333 273 l 333 335 l 316 370 l 112 370 l 112 501 l 250 501 l 5 981 l 408 981 l 481 779 q 532 611 511 694 q 566 722 538 632 q 589 795 573 747 l 651 981 l 1021 981 z "},"µ":{"ha":951,"x_min":63,"x_max":890,"o":"m 890 725 l 890 0 l 562 0 l 562 94 q 530 18 549 41 q 469 -14 505 -14 q 429 -3 448 -14 q 399 25 416 5 q 404 -39 403 -3 l 412 -325 l 63 -325 l 63 725 l 412 725 l 412 283 q 429 222 412 241 q 475 203 446 203 q 515 216 498 203 q 538 246 532 228 q 544 304 544 264 l 544 725 l 890 725 z "},"∂":{"ha":737,"x_min":22,"x_max":715,"o":"m 178 1038 q 479 912 366 993 q 654 695 593 831 q 715 392 715 559 q 690 204 715 283 q 626 81 665 125 q 523 9 587 37 q 361 -18 458 -18 q 111 72 199 -18 q 22 328 22 161 q 127 602 22 511 q 315 671 206 671 q 387 661 354 671 q 441 635 411 654 q 378 719 410 686 q 290 784 346 751 q 186 830 251 807 q 56 866 122 852 l 178 1038 m 486 329 q 456 445 486 410 q 370 479 425 479 q 284 438 312 479 q 256 327 256 396 q 287 218 256 254 q 369 182 319 182 q 434 199 407 182 q 473 253 460 216 q 486 329 486 289 z "},"∑":{"ha":813,"x_min":37,"x_max":777,"o":"m 760 994 l 760 777 l 341 777 l 525 505 l 320 216 l 777 216 l 777 0 l 37 0 l 37 188 l 260 505 l 52 804 l 52 994 l 760 994 z "},"∏":{"ha":947,"x_min":66,"x_max":880,"o":"m 880 994 l 880 0 l 647 0 l 647 768 l 300 768 l 300 0 l 66 0 l 66 994 l 880 994 z "},"π":{"ha":867,"x_min":0,"x_max":839,"o":"m 839 689 l 839 481 l 726 481 l 726 234 q 739 181 726 196 q 779 165 753 165 q 839 181 800 165 l 839 23 q 761 -9 793 -1 q 686 -18 728 -18 q 604 -2 642 -18 q 545 39 566 14 q 517 95 524 65 q 510 186 510 124 l 510 481 l 314 481 l 314 0 l 97 0 l 97 481 l 0 481 l 0 689 l 839 689 z "},"∫":{"ha":915,"x_min":54,"x_max":861,"o":"m 596 926 l 563 231 q 547 31 556 91 q 504 -131 532 -69 q 430 -235 476 -192 q 332 -299 385 -279 q 224 -319 280 -319 q 100 -279 145 -319 q 54 -182 54 -239 q 82 -110 54 -138 q 154 -82 109 -82 q 228 -115 201 -82 q 247 -178 241 -131 q 258 -219 251 -210 q 277 -228 265 -228 q 299 -214 292 -228 q 319 -90 313 -190 l 361 677 q 384 875 368 806 q 434 998 400 944 q 506 1083 469 1053 q 591 1132 544 1114 q 690 1149 638 1149 q 816 1108 770 1149 q 861 1010 861 1067 q 833 939 861 966 q 761 911 806 911 q 711 923 733 911 q 681 951 690 935 q 667 1013 672 968 q 656 1049 663 1040 q 639 1057 649 1057 q 614 1042 623 1057 q 596 926 600 1019 z "},"ª":{"ha":585,"x_min":13,"x_max":545,"o":"m 342 553 l 342 614 q 180 540 288 540 q 56 578 99 540 q 13 672 13 616 q 72 785 13 744 q 267 827 132 827 q 338 825 289 827 q 313 871 337 853 q 231 890 289 890 q 154 881 194 890 q 67 852 124 875 l 67 973 q 264 998 166 998 q 399 986 340 998 q 494 945 458 975 q 536 884 522 922 q 545 811 545 859 l 545 553 l 342 553 m 344 747 l 332 747 q 263 742 283 747 q 232 724 243 736 q 221 694 221 711 q 236 663 221 677 q 273 650 250 650 q 323 672 301 650 q 345 734 345 695 q 344 747 345 738 z "},"º":{"ha":618,"x_min":20,"x_max":597,"o":"m 304 998 q 472 975 414 998 q 564 900 530 951 q 597 769 597 850 q 529 599 597 659 q 315 538 461 538 q 108 588 178 538 q 20 770 20 650 q 89 937 20 876 q 304 998 158 998 m 307 664 q 345 683 332 664 q 358 770 358 701 q 343 860 358 838 q 309 876 333 876 q 271 857 285 876 q 258 772 258 838 q 273 681 258 704 q 307 664 284 664 z "},"Ω":{"ha":1101,"x_min":62,"x_max":1031,"o":"m 1031 200 l 1031 0 l 600 0 l 600 214 q 665 252 637 230 q 722 322 699 282 q 758 409 745 361 q 770 536 770 456 q 752 671 770 622 q 673 780 726 742 q 547 818 620 818 q 387 747 449 818 q 324 529 324 675 q 384 308 324 395 q 500 214 424 250 l 500 0 l 62 0 l 62 200 l 280 200 q 80 570 80 320 q 102 728 80 664 q 158 842 124 791 q 242 935 191 893 q 370 1002 294 977 q 548 1027 447 1027 q 911 882 783 1027 q 1017 578 1017 760 q 986 395 1017 475 q 899 260 956 315 q 812 200 865 227 l 1031 200 z "},"æ":{"ha":1337,"x_min":22,"x_max":1310,"o":"m 1263 209 l 1263 22 q 945 -21 1104 -21 q 753 4 819 -21 q 609 104 687 30 q 500 16 562 44 q 302 -21 421 -21 q 89 39 155 -21 q 22 204 22 98 q 42 306 22 262 q 102 381 62 349 q 190 430 142 414 q 323 452 238 446 q 508 456 380 456 q 458 536 503 512 q 334 561 413 561 q 225 547 281 561 q 100 502 169 533 l 100 703 q 243 733 162 722 q 399 745 325 745 q 540 730 488 745 q 630 688 593 715 q 672 645 652 672 q 773 722 716 696 q 916 747 829 747 q 1132 697 1038 747 q 1268 564 1226 647 q 1310 357 1310 480 l 1310 278 l 836 278 q 877 201 839 229 q 1031 164 928 164 q 1158 178 1090 164 q 1263 209 1226 191 m 828 428 l 1006 428 q 980 547 1007 511 q 918 574 960 574 q 844 530 867 574 q 828 428 828 503 m 524 333 l 492 333 q 371 306 406 333 q 336 239 336 278 q 359 187 336 209 q 418 165 382 165 q 494 200 465 165 q 524 311 524 235 l 524 333 z "},"ø":{"ha":951,"x_min":32,"x_max":918,"o":"m 161 66 q 32 366 32 170 q 54 513 32 446 q 117 624 77 581 q 210 696 157 667 q 301 728 247 715 q 473 747 379 747 q 680 723 590 747 l 808 886 l 908 806 l 797 665 q 918 365 918 565 q 891 198 918 271 q 808 76 865 124 q 682 7 752 28 q 487 -20 590 -20 q 277 7 378 -20 l 143 -164 l 43 -83 l 161 66 m 397 364 l 523 524 q 476 542 505 542 q 416 507 436 542 q 397 364 397 473 m 551 353 l 433 203 q 474 190 451 190 q 516 203 498 190 q 542 245 534 216 q 551 353 550 275 z "},"¿":{"ha":798,"x_min":47,"x_max":730,"o":"m 595 804 l 595 547 l 293 547 l 293 804 l 595 804 m 730 88 l 730 -148 q 427 -200 570 -200 q 219 -166 311 -200 q 86 -80 126 -132 q 47 48 47 -28 q 62 130 47 93 q 117 209 77 166 q 206 286 146 241 q 268 336 252 320 q 292 373 283 352 q 304 446 302 402 l 582 446 q 573 352 581 389 q 552 293 565 315 q 522 253 540 271 q 466 207 515 246 q 407 154 417 168 q 394 114 394 134 q 418 67 394 84 q 526 42 453 42 q 730 88 610 42 z "},"¡":{"ha":591,"x_min":113,"x_max":484,"o":"m 452 804 l 452 547 l 150 547 l 150 804 l 452 804 m 484 -175 l 113 -175 l 168 446 l 433 446 l 484 -175 z "},"¬":{"ha":833,"x_min":38,"x_max":795,"o":"m 38 432 l 38 665 l 795 665 l 795 93 l 562 93 l 562 432 l 38 432 z "},"√":{"ha":833,"x_min":-9,"x_max":879,"o":"m 879 1173 l 545 -46 l 349 -46 l 142 356 l 70 321 l -9 489 l 279 621 l 420 277 l 644 1173 l 879 1173 z "},"ƒ":{"ha":823,"x_min":-22,"x_max":829,"o":"m -22 -292 l -22 -103 q 27 -113 1 -113 q 122 -64 85 -113 q 183 96 149 -28 l 254 355 l 100 355 l 100 563 l 315 563 l 321 595 q 404 840 351 742 q 477 930 434 896 q 568 979 520 964 q 680 994 615 994 q 829 977 736 994 l 829 793 q 774 800 807 800 q 694 763 732 800 q 632 622 656 725 l 617 563 l 785 563 l 785 355 l 559 355 l 477 56 q 429 -89 450 -42 q 366 -194 400 -153 q 297 -259 332 -235 q 217 -297 262 -283 q 113 -310 172 -310 q 41 -304 81 -310 q -22 -292 1 -299 z "},"≈":{"ha":833,"x_min":34,"x_max":799,"o":"m 799 693 q 722 473 785 543 q 583 403 659 403 q 538 408 560 403 q 349 462 528 410 q 249 485 268 485 q 202 466 223 485 q 175 413 180 446 l 34 413 q 72 567 39 497 q 150 669 104 637 q 243 701 196 701 q 288 696 265 701 q 444 654 335 687 q 586 620 553 620 q 631 640 610 620 q 656 693 652 660 l 799 693 m 799 347 q 722 126 785 197 q 582 56 659 56 q 539 61 562 56 q 349 115 517 66 q 247 138 271 138 q 201 118 222 138 q 175 66 180 99 l 34 66 q 72 223 39 153 q 151 324 106 293 q 247 355 196 355 q 288 350 267 355 q 448 306 342 338 q 586 273 554 273 q 631 293 610 273 q 656 347 652 313 l 799 347 z "},"∆":{"ha":988,"x_min":9,"x_max":979,"o":"m 601 994 l 979 0 l 9 0 l 355 994 l 601 994 m 478 710 l 319 208 l 663 208 l 478 710 z "},"«":{"ha":900,"x_min":35,"x_max":834,"o":"m 35 361 l 193 661 l 460 661 l 334 361 l 460 61 l 193 61 l 35 361 m 834 61 l 569 61 l 408 361 l 569 661 l 834 661 l 707 361 l 834 61 z "},"»":{"ha":900,"x_min":64,"x_max":863,"o":"m 330 61 l 64 61 l 191 361 l 64 661 l 330 661 l 490 361 l 330 61 m 706 61 l 439 61 l 564 361 l 439 661 l 706 661 l 863 360 l 706 61 z "},"…":{"ha":1389,"x_min":94,"x_max":1295,"o":"m 94 0 l 94 275 l 370 275 l 370 0 l 94 0 m 557 0 l 557 275 l 832 275 l 832 0 l 557 0 m 1020 0 l 1020 275 l 1295 275 l 1295 0 l 1020 0 z "}," ":{"ha":1027,"x_min":0,"x_max":0,"o":""},"À":{"ha":1158,"x_min":-24,"x_max":1177,"o":"m 318 979 l 831 979 l 1177 0 l 786 0 l 722 214 l 408 214 l 349 0 l -24 0 l 318 979 m 459 444 l 675 444 l 567 760 l 459 444 m 268 1261 l 599 1261 l 737 1045 l 541 1045 l 268 1261 z "},"Ã":{"ha":1158,"x_min":-24,"x_max":1177,"o":"m 318 979 l 831 979 l 1177 0 l 786 0 l 722 214 l 408 214 l 349 0 l -24 0 l 318 979 m 459 444 l 675 444 l 567 760 l 459 444 m 406 1044 l 273 1044 q 340 1204 288 1152 q 463 1257 392 1257 q 546 1245 501 1257 l 615 1227 q 708 1208 691 1208 q 732 1217 722 1208 q 755 1255 743 1225 l 886 1255 q 854 1140 883 1190 q 780 1067 825 1091 q 687 1043 735 1043 q 593 1061 649 1043 l 541 1077 q 463 1093 488 1093 q 425 1079 441 1093 q 406 1044 408 1065 z "},"Õ":{"ha":1132,"x_min":31,"x_max":1098,"o":"m 561 1000 q 810 958 695 1000 q 956 868 892 928 q 1053 731 1019 808 q 1098 487 1098 624 q 1064 277 1098 372 q 964 117 1031 182 q 812 19 897 53 q 565 -25 703 -25 q 317 20 429 -25 q 173 111 236 52 q 77 246 111 171 q 31 490 31 351 q 63 695 31 605 q 160 851 96 785 q 302 952 224 918 q 561 1000 409 1000 m 562 214 q 643 238 609 214 q 695 319 677 262 q 713 486 713 376 q 705 607 713 551 q 680 696 696 663 q 633 748 663 729 q 564 767 604 767 q 487 742 522 767 q 433 653 453 718 q 413 477 413 588 q 463 260 413 330 q 562 214 497 214 m 393 1044 l 260 1044 q 327 1204 275 1152 q 450 1257 379 1257 q 533 1245 488 1257 l 602 1227 q 695 1208 678 1208 q 719 1217 709 1208 q 742 1255 730 1225 l 873 1255 q 841 1140 870 1190 q 767 1067 812 1091 q 674 1043 722 1043 q 580 1061 636 1043 l 528 1077 q 450 1093 475 1093 q 412 1079 428 1093 q 393 1044 395 1065 z "},"Œ":{"ha":1492,"x_min":37,"x_max":1457,"o":"m 1447 977 l 1447 744 l 1036 744 l 1036 604 l 1425 604 l 1425 378 l 1036 378 l 1036 233 l 1457 233 l 1457 0 l 486 0 q 321 24 390 0 q 170 116 231 56 q 77 248 108 176 q 37 483 37 342 q 79 726 37 628 q 198 886 120 825 q 364 960 257 933 q 542 977 432 977 l 1447 977 m 682 227 l 682 738 l 614 738 q 538 732 561 738 q 481 703 503 722 q 438 633 453 676 q 423 479 423 590 q 440 329 423 377 q 497 254 458 281 q 608 227 537 227 l 682 227 z "},"œ":{"ha":1389,"x_min":32,"x_max":1363,"o":"m 1363 278 l 881 278 q 930 198 886 230 q 1074 165 975 165 q 1310 209 1188 165 l 1310 22 q 991 -21 1124 -21 q 806 12 880 -21 q 718 79 753 35 q 450 -16 619 -16 q 248 18 338 -16 q 141 84 189 40 q 67 185 93 129 q 32 366 32 263 q 75 564 32 479 q 211 697 119 649 q 439 745 302 745 q 594 721 532 745 q 713 646 657 697 q 830 722 768 697 q 969 746 892 746 q 1128 722 1052 746 q 1250 657 1204 698 q 1320 569 1296 616 q 1354 446 1343 522 q 1363 278 1363 389 m 873 428 l 1053 428 l 1053 446 q 1028 543 1053 513 q 966 572 1004 572 q 899 543 925 572 q 873 447 873 513 l 873 428 m 472 190 q 531 220 511 190 q 551 367 551 250 q 528 517 551 481 q 476 542 512 542 q 418 511 439 542 q 397 370 397 479 q 421 217 397 254 q 472 190 439 190 z "},"–":{"ha":694,"x_min":-5,"x_max":699,"o":"m -5 265 l -5 463 l 699 463 l 699 265 l -5 265 z "},"—":{"ha":1389,"x_min":0,"x_max":1389,"o":"m 0 463 l 1389 463 l 1389 265 l 0 265 l 0 463 z "},"“":{"ha":772,"x_min":18,"x_max":751,"o":"m 177 1048 l 399 1048 l 312 625 l 18 625 l 177 1048 m 529 1048 l 751 1048 l 664 625 l 370 625 l 529 1048 z "},"”":{"ha":772,"x_min":22,"x_max":755,"o":"m 596 625 l 374 625 l 461 1048 l 755 1048 l 596 625 m 244 625 l 22 625 l 109 1048 l 404 1048 l 244 625 z "},"‘":{"ha":439,"x_min":22,"x_max":403,"o":"m 181 1048 l 403 1048 l 316 625 l 22 625 l 181 1048 z "},"’":{"ha":439,"x_min":35,"x_max":416,"o":"m 256 625 l 35 625 l 121 1048 l 416 1048 l 256 625 z "},"÷":{"ha":833,"x_min":38,"x_max":795,"o":"m 279 532 l 279 758 l 554 758 l 554 532 l 279 532 m 38 262 l 38 496 l 795 496 l 795 262 l 38 262 m 279 0 l 279 225 l 554 225 l 554 0 l 279 0 z "},"◊":{"ha":833,"x_min":60,"x_max":773,"o":"m 514 1036 l 773 494 l 514 -49 l 316 -49 l 60 494 l 319 1036 l 514 1036 m 418 814 l 282 494 l 418 173 l 549 494 l 418 814 z "},"ÿ":{"ha":849,"x_min":-19,"x_max":861,"o":"m 524 725 l 861 725 l 640 39 q 586 -110 607 -65 q 527 -207 558 -169 q 459 -268 496 -245 q 367 -305 423 -290 q 239 -320 311 -320 q 31 -296 155 -320 l 31 -90 q 122 -104 78 -104 q 213 -80 184 -104 q 241 -19 241 -56 q 235 14 241 -3 l -19 725 l 345 725 l 436 279 l 524 725 m 116 829 l 116 1045 l 367 1045 l 367 829 l 116 829 m 484 829 l 484 1045 l 732 1045 l 732 829 l 484 829 z "},"Ÿ":{"ha":1055,"x_min":-22,"x_max":1076,"o":"m 707 0 l 339 0 l 339 298 l -22 979 l 397 979 l 550 583 l 690 979 l 1076 979 l 707 298 l 707 0 m 218 1045 l 218 1261 l 469 1261 l 469 1045 l 218 1045 m 587 1045 l 587 1261 l 834 1261 l 834 1045 l 587 1045 z "},"∕":{"ha":231,"x_min":-238,"x_max":460,"o":"m 309 1013 l 460 1013 l -87 -43 l -238 -43 l 309 1013 z "},"¤":{"ha":833,"x_min":48,"x_max":785,"o":"m 48 253 l 148 351 q 116 422 125 390 q 106 496 106 454 q 116 571 106 538 q 148 647 125 605 l 48 743 l 172 867 l 270 769 q 342 799 309 790 q 417 808 376 808 q 492 799 459 808 q 564 766 525 789 l 662 867 l 785 743 l 686 643 q 716 581 708 608 q 728 499 728 544 q 717 418 728 456 q 686 351 709 390 l 785 253 l 662 129 l 564 227 q 492 196 525 205 q 416 187 458 187 q 341 197 373 187 q 270 229 309 206 l 172 129 l 48 253 m 417 625 q 327 588 364 625 q 290 498 290 551 q 327 408 290 445 q 417 371 364 371 q 507 408 469 371 q 544 498 544 446 q 507 588 544 551 q 417 625 470 625 z "},"‹":{"ha":540,"x_min":35,"x_max":475,"o":"m 35 360 l 197 661 l 475 661 l 352 360 l 473 61 l 195 61 l 35 360 z "},"›":{"ha":540,"x_min":64,"x_max":505,"o":"m 344 661 l 505 361 l 344 61 l 64 61 l 189 361 l 68 661 l 344 661 z "},"ﬁ":{"ha":1132,"x_min":6,"x_max":1062,"o":"m 6 515 l 6 725 l 136 725 l 136 760 q 151 889 136 841 q 205 977 165 937 q 309 1040 245 1018 q 453 1061 373 1061 q 656 1038 548 1061 l 656 838 q 589 852 627 852 q 534 842 556 852 q 502 816 512 831 q 487 776 492 800 q 485 725 485 764 l 646 725 l 646 515 l 492 515 l 492 0 l 136 0 l 136 515 l 6 515 m 1062 806 l 712 806 l 712 1048 l 1062 1048 l 1062 806 m 712 0 l 712 725 l 1062 725 l 1062 0 l 712 0 z "},"ﬂ":{"ha":1132,"x_min":6,"x_max":1062,"o":"m 6 515 l 6 725 l 136 725 l 136 760 q 151 889 136 841 q 205 977 165 937 q 309 1040 245 1018 q 453 1061 373 1061 q 656 1038 548 1061 l 656 838 q 589 852 627 852 q 534 842 556 852 q 502 816 512 831 q 487 776 492 800 q 485 725 485 764 l 646 725 l 646 515 l 492 515 l 492 0 l 136 0 l 136 515 l 6 515 m 712 1048 l 1062 1048 l 1062 0 l 712 0 l 712 1048 z "},"‡":{"ha":900,"x_min":53,"x_max":848,"o":"m 304 1048 l 598 1048 l 598 802 l 848 802 l 848 578 l 598 578 l 598 326 l 848 326 l 848 103 l 598 103 l 598 -153 l 304 -153 l 304 103 l 53 103 l 53 326 l 304 326 l 304 578 l 53 578 l 53 802 l 304 802 l 304 1048 z "},"∙":{"ha":514,"x_min":102,"x_max":412,"o":"m 257 538 q 334 518 296 538 q 392 460 371 498 q 412 382 412 422 q 367 273 412 319 q 257 227 321 227 q 147 273 193 227 q 102 382 102 318 q 123 460 102 423 q 181 518 144 498 q 257 538 218 538 z "},"‚":{"ha":439,"x_min":35,"x_max":416,"o":"m 256 -170 l 35 -170 l 121 252 l 416 252 l 256 -170 z "},"„":{"ha":772,"x_min":22,"x_max":755,"o":"m 596 -170 l 374 -170 l 461 252 l 755 252 l 596 -170 m 244 -170 l 22 -170 l 109 252 l 404 252 l 244 -170 z "},"‰":{"ha":1620,"x_min":6,"x_max":1615,"o":"m 926 1016 l 297 -31 l 142 -31 l 773 1016 l 926 1016 m 514 749 q 484 611 514 675 q 393 513 454 548 q 250 479 332 479 q 73 548 139 479 q 6 738 6 617 q 77 939 6 866 q 267 1011 147 1011 q 450 944 386 1011 q 514 749 514 878 m 256 627 q 299 652 282 627 q 317 758 317 677 q 303 859 317 838 q 264 880 289 880 q 227 863 241 880 q 209 814 212 847 q 205 717 205 756 q 219 645 205 664 q 256 627 233 627 m 1074 246 q 1044 108 1074 172 q 952 10 1014 45 q 809 -24 891 -24 q 632 45 698 -24 q 566 235 566 114 q 636 435 566 363 q 826 508 707 508 q 970 473 913 508 q 1050 378 1027 439 q 1074 246 1074 317 m 816 124 q 847 135 832 124 q 869 171 861 146 q 876 254 876 196 q 862 356 876 335 q 823 376 848 376 q 786 360 801 376 q 768 311 771 344 q 764 214 764 253 q 778 142 764 161 q 816 124 792 124 m 1615 246 q 1585 108 1615 172 q 1494 10 1555 45 q 1351 -24 1432 -24 q 1174 45 1240 -24 q 1107 235 1107 114 q 1178 435 1107 363 q 1368 508 1249 508 q 1512 473 1455 508 q 1592 378 1569 439 q 1615 246 1615 317 m 1360 123 q 1405 153 1392 123 q 1418 281 1418 182 q 1412 347 1418 328 q 1392 369 1407 359 q 1362 378 1377 378 q 1334 368 1348 378 q 1316 351 1320 359 q 1308 309 1310 339 q 1305 226 1305 270 q 1310 157 1305 174 q 1329 132 1316 140 q 1360 123 1341 123 z "},"Â":{"ha":1158,"x_min":-24,"x_max":1177,"o":"m 318 979 l 831 979 l 1177 0 l 786 0 l 722 214 l 408 214 l 349 0 l -24 0 l 318 979 m 459 444 l 675 444 l 567 760 l 459 444 m 437 1259 l 715 1259 l 872 1045 l 671 1045 l 572 1172 l 480 1045 l 276 1045 l 437 1259 z "},"Ê":{"ha":951,"x_min":64,"x_max":907,"o":"m 64 979 l 897 979 l 897 746 l 418 746 l 418 608 l 876 608 l 876 378 l 418 378 l 418 233 l 907 233 l 907 0 l 64 0 l 64 979 m 347 1259 l 625 1259 l 783 1045 l 582 1045 l 482 1172 l 391 1045 l 186 1045 l 347 1259 z "},"Á":{"ha":1158,"x_min":-24,"x_max":1177,"o":"m 318 979 l 831 979 l 1177 0 l 786 0 l 722 214 l 408 214 l 349 0 l -24 0 l 318 979 m 459 444 l 675 444 l 567 760 l 459 444 m 559 1261 l 886 1261 l 625 1045 l 414 1045 l 559 1261 z "},"Ë":{"ha":951,"x_min":64,"x_max":907,"o":"m 64 979 l 897 979 l 897 746 l 418 746 l 418 608 l 876 608 l 876 378 l 418 378 l 418 233 l 907 233 l 907 0 l 64 0 l 64 979 m 180 1045 l 180 1261 l 431 1261 l 431 1045 l 180 1045 m 548 1045 l 548 1261 l 795 1261 l 795 1045 l 548 1045 z "},"È":{"ha":951,"x_min":64,"x_max":907,"o":"m 64 979 l 897 979 l 897 746 l 418 746 l 418 608 l 876 608 l 876 378 l 418 378 l 418 233 l 907 233 l 907 0 l 64 0 l 64 979 m 178 1261 l 509 1261 l 648 1045 l 452 1045 l 178 1261 z "},"Í":{"ha":515,"x_min":71,"x_max":564,"o":"m 440 979 l 440 0 l 71 0 l 71 979 l 440 979 m 237 1261 l 564 1261 l 304 1045 l 93 1045 l 237 1261 z "},"Î":{"ha":515,"x_min":-45,"x_max":551,"o":"m 440 979 l 440 0 l 71 0 l 71 979 l 440 979 m 115 1259 l 393 1259 l 551 1045 l 350 1045 l 250 1172 l 159 1045 l -45 1045 l 115 1259 z "},"Ï":{"ha":515,"x_min":-52,"x_max":564,"o":"m 440 979 l 440 0 l 71 0 l 71 979 l 440 979 m -52 1045 l -52 1261 l 199 1261 l 199 1045 l -52 1045 m 316 1045 l 316 1261 l 564 1261 l 564 1045 l 316 1045 z "},"Ì":{"ha":515,"x_min":-54,"x_max":440,"o":"m 440 979 l 440 0 l 71 0 l 71 979 l 440 979 m -54 1261 l 277 1261 l 416 1045 l 220 1045 l -54 1261 z "},"Ó":{"ha":1132,"x_min":31,"x_max":1098,"o":"m 561 1000 q 810 958 695 1000 q 956 868 892 928 q 1053 731 1019 808 q 1098 487 1098 624 q 1064 277 1098 372 q 964 117 1031 182 q 812 19 897 53 q 565 -25 703 -25 q 317 20 429 -25 q 173 111 236 52 q 77 246 111 171 q 31 490 31 351 q 63 695 31 605 q 160 851 96 785 q 302 952 224 918 q 561 1000 409 1000 m 562 214 q 643 238 609 214 q 695 319 677 262 q 713 486 713 376 q 705 607 713 551 q 680 696 696 663 q 633 748 663 729 q 564 767 604 767 q 487 742 522 767 q 433 653 453 718 q 413 477 413 588 q 463 260 413 330 q 562 214 497 214 m 546 1260 l 873 1260 l 612 1044 l 401 1044 l 546 1260 z "},"Ô":{"ha":1132,"x_min":31,"x_max":1098,"o":"m 561 1000 q 810 958 695 1000 q 956 868 892 928 q 1053 731 1019 808 q 1098 487 1098 624 q 1064 277 1098 372 q 964 117 1031 182 q 812 19 897 53 q 565 -25 703 -25 q 317 20 429 -25 q 173 111 236 52 q 77 246 111 171 q 31 490 31 351 q 63 695 31 605 q 160 851 96 785 q 302 952 224 918 q 561 1000 409 1000 m 562 214 q 643 238 609 214 q 695 319 677 262 q 713 486 713 376 q 705 607 713 551 q 680 696 696 663 q 633 748 663 729 q 564 767 604 767 q 487 742 522 767 q 433 653 453 718 q 413 477 413 588 q 463 260 413 330 q 562 214 497 214 m 424 1258 l 702 1258 l 859 1044 l 659 1044 l 559 1171 l 467 1044 l 263 1044 l 424 1258 z "},"Ò":{"ha":1132,"x_min":31,"x_max":1098,"o":"m 561 1000 q 810 958 695 1000 q 956 868 892 928 q 1053 731 1019 808 q 1098 487 1098 624 q 1064 277 1098 372 q 964 117 1031 182 q 812 19 897 53 q 565 -25 703 -25 q 317 20 429 -25 q 173 111 236 52 q 77 246 111 171 q 31 490 31 351 q 63 695 31 605 q 160 851 96 785 q 302 952 224 918 q 561 1000 409 1000 m 562 214 q 643 238 609 214 q 695 319 677 262 q 713 486 713 376 q 705 607 713 551 q 680 696 696 663 q 633 748 663 729 q 564 767 604 767 q 487 742 522 767 q 433 653 453 718 q 413 477 413 588 q 463 260 413 330 q 562 214 497 214 m 255 1260 l 586 1260 l 724 1044 l 528 1044 l 255 1260 z "},"Ú":{"ha":1106,"x_min":68,"x_max":1036,"o":"m 68 979 l 441 979 l 441 370 q 450 294 441 319 q 489 241 461 260 q 559 222 517 222 q 645 256 614 222 q 677 363 677 290 l 677 979 l 1036 979 l 1036 394 q 1006 201 1036 276 q 913 71 977 125 q 756 -7 850 17 q 559 -31 662 -31 q 348 -6 441 -31 q 230 46 286 10 q 142 123 174 83 q 89 225 110 163 q 68 389 68 288 l 68 979 m 534 1261 l 861 1261 l 600 1045 l 389 1045 l 534 1261 z "},"Û":{"ha":1106,"x_min":68,"x_max":1036,"o":"m 68 979 l 441 979 l 441 370 q 450 294 441 319 q 489 241 461 260 q 559 222 517 222 q 645 256 614 222 q 677 363 677 290 l 677 979 l 1036 979 l 1036 394 q 1006 201 1036 276 q 913 71 977 125 q 756 -7 850 17 q 559 -31 662 -31 q 348 -6 441 -31 q 230 46 286 10 q 142 123 174 83 q 89 225 110 163 q 68 389 68 288 l 68 979 m 412 1259 l 690 1259 l 847 1045 l 646 1045 l 547 1172 l 455 1045 l 251 1045 l 412 1259 z "},"Ù":{"ha":1106,"x_min":68,"x_max":1036,"o":"m 68 979 l 441 979 l 441 370 q 450 294 441 319 q 489 241 461 260 q 559 222 517 222 q 645 256 614 222 q 677 363 677 290 l 677 979 l 1036 979 l 1036 394 q 1006 201 1036 276 q 913 71 977 125 q 756 -7 850 17 q 559 -31 662 -31 q 348 -6 441 -31 q 230 46 286 10 q 142 123 174 83 q 89 225 110 163 q 68 389 68 288 l 68 979 m 243 1261 l 574 1261 l 712 1045 l 516 1045 l 243 1261 z "},"ı":{"ha":489,"x_min":68,"x_max":418,"o":"m 68 0 l 68 725 l 418 725 l 418 0 l 68 0 z "},"ˆ":{"ha":386,"x_min":-109,"x_max":487,"o":"m 52 1043 l 330 1043 l 487 829 l 286 829 l 186 956 l 95 829 l -109 829 l 52 1043 z "},"˜":{"ha":386,"x_min":-113,"x_max":501,"o":"m 21 829 l -113 829 q -45 989 -97 937 q 78 1042 7 1042 q 161 1030 116 1042 l 230 1013 q 323 994 306 994 q 347 1002 336 994 q 370 1040 357 1010 l 501 1040 q 469 925 498 975 q 395 852 440 876 q 302 828 350 828 q 208 846 264 828 l 156 862 q 77 878 102 878 q 39 864 56 878 q 21 829 23 850 z "},"¯":{"ha":386,"x_min":-100,"x_max":476,"o":"m -100 863 l -100 998 l 476 998 l 476 863 l -100 863 z "},"˘":{"ha":386,"x_min":-83,"x_max":463,"o":"m 315 1040 l 463 1040 q 429 924 458 970 q 335 847 400 878 q 187 816 270 816 q 40 848 105 816 q -58 939 -25 880 q -83 1040 -83 982 l 64 1040 q 103 981 73 1004 q 189 958 134 958 q 270 979 239 958 q 315 1040 301 1000 z "},"˙":{"ha":386,"x_min":68,"x_max":318,"o":"m 318 1044 l 318 829 l 68 829 l 68 1044 l 318 1044 z "},"˚":{"ha":386,"x_min":29,"x_max":357,"o":"m 193 806 q 77 853 125 806 q 29 969 29 901 q 77 1085 29 1038 q 193 1133 125 1133 q 309 1085 261 1133 q 357 969 357 1037 q 309 853 357 901 q 193 806 261 806 m 193 908 q 236 926 218 908 q 254 969 254 944 q 236 1013 254 995 q 193 1030 218 1030 q 150 1013 168 1030 q 132 969 132 995 q 150 926 132 944 q 193 908 168 908 z "},"¸":{"ha":386,"x_min":5,"x_max":395,"o":"m 129 -161 l 83 -117 l 159 8 l 269 8 l 210 -85 q 260 -80 239 -80 q 331 -93 299 -80 q 379 -134 363 -106 q 395 -195 395 -162 q 344 -295 395 -252 q 199 -338 292 -338 q 100 -325 155 -338 q 5 -292 46 -312 l 42 -216 l 66 -225 q 170 -250 127 -250 q 224 -234 205 -250 q 243 -199 243 -218 q 226 -167 243 -181 q 179 -153 210 -153 q 129 -161 153 -153 z "},"˝":{"ha":386,"x_min":-123,"x_max":673,"o":"m 312 1044 l 67 829 l -123 829 l 10 1044 l 312 1044 m 673 1044 l 418 829 l 229 829 l 371 1044 l 673 1044 z "},"˛":{"ha":386,"x_min":229,"x_max":551,"o":"m 509 14 q 410 -77 432 -47 q 389 -132 389 -106 q 409 -182 389 -161 q 462 -202 429 -202 q 495 -197 478 -202 q 551 -176 512 -193 l 551 -255 q 372 -313 445 -313 q 258 -264 296 -313 q 229 -185 229 -229 q 244 -125 229 -155 q 298 -64 260 -96 q 406 14 327 -39 l 509 14 z "},"ˇ":{"ha":386,"x_min":-103,"x_max":493,"o":"m 332 829 l 54 829 l -103 1045 l 98 1045 l 197 916 l 289 1045 l 493 1045 l 332 829 z "},"Ł":{"ha":926,"x_min":-10,"x_max":903,"o":"m 448 981 l 448 686 l 686 829 l 686 663 l 448 521 l 448 284 l 903 284 l 903 0 l 75 0 l 75 315 l -10 263 l -10 429 l 75 479 l 75 981 l 448 981 z "},"ł":{"ha":489,"x_min":-3,"x_max":496,"o":"m 419 1049 l 419 730 l 496 779 l 496 627 l 419 577 l 419 0 l 69 0 l 69 361 l -3 315 l -3 471 l 69 517 l 69 1049 l 419 1049 z "},"Š":{"ha":951,"x_min":34,"x_max":915,"o":"m 42 29 l 42 281 q 207 233 118 250 q 374 216 296 216 q 518 243 475 216 q 542 283 542 258 q 527 319 542 304 q 458 345 511 334 q 303 380 387 359 q 162 433 218 402 q 93 490 120 456 q 50 571 66 524 q 34 671 34 618 q 57 793 34 740 q 118 882 80 846 q 215 946 156 918 q 300 975 252 964 q 509 996 395 996 q 687 985 594 996 q 852 958 780 975 l 852 709 q 713 745 798 730 q 560 759 629 759 q 445 739 486 759 q 404 689 404 720 q 416 660 404 673 q 463 636 429 646 q 592 607 478 632 q 713 575 673 589 q 810 528 772 553 q 868 473 847 502 q 902 401 888 444 q 915 309 915 358 q 882 159 915 218 q 779 60 848 100 q 610 0 709 20 q 413 -19 512 -19 q 221 -5 322 -19 q 42 29 157 3 m 615 1045 l 337 1045 l 180 1261 l 380 1261 l 480 1132 l 572 1261 l 776 1261 l 615 1045 z "},"š":{"ha":772,"x_min":24,"x_max":749,"o":"m 45 22 l 45 231 q 298 165 162 165 q 409 184 377 165 q 427 214 427 195 q 408 244 427 233 q 340 260 393 252 q 214 283 252 273 q 113 327 154 300 q 48 398 72 354 q 24 497 24 442 q 43 588 24 547 q 96 658 62 629 q 177 708 129 687 q 248 730 207 721 q 419 746 326 746 q 692 715 551 746 l 692 516 q 588 547 652 534 q 469 559 523 559 q 368 541 399 559 q 351 512 351 530 q 370 486 351 495 q 463 468 383 479 q 576 447 542 456 q 653 417 625 433 q 702 376 680 400 q 736 320 724 353 q 749 246 749 288 q 731 154 749 195 q 686 87 712 114 q 631 47 665 66 q 526 5 585 20 q 331 -18 433 -18 q 45 22 193 -18 m 526 829 l 248 829 l 90 1045 l 291 1045 l 391 916 l 482 1045 l 686 1045 l 526 829 z "},"Ž":{"ha":951,"x_min":26,"x_max":923,"o":"m 907 979 l 907 673 l 447 256 l 923 256 l 923 0 l 26 0 l 26 304 l 503 732 l 43 732 l 43 979 l 907 979 m 615 1045 l 337 1045 l 180 1261 l 380 1261 l 480 1132 l 572 1261 l 776 1261 l 615 1045 z "},"ž":{"ha":849,"x_min":48,"x_max":804,"o":"m 61 725 l 794 725 l 794 425 l 461 211 l 804 211 l 804 0 l 48 0 l 48 302 l 400 515 l 61 515 l 61 725 m 564 829 l 286 829 l 128 1045 l 329 1045 l 429 916 l 520 1045 l 724 1045 l 564 829 z "},"¦":{"ha":309,"x_min":37,"x_max":271,"o":"m 37 521 l 37 868 l 271 868 l 271 521 l 37 521 m 37 -174 l 37 174 l 271 174 l 271 -174 l 37 -174 z "},"Ð":{"ha":1132,"x_min":-3,"x_max":1093,"o":"m 74 979 l 538 979 q 747 964 661 979 q 893 914 833 948 q 995 829 953 880 q 1058 718 1037 778 q 1093 492 1093 617 q 1066 294 1093 377 q 998 158 1040 210 q 905 75 956 105 q 761 23 854 45 q 557 0 667 0 l 74 0 l 74 437 l -3 437 l -3 591 l 74 591 l 74 979 m 446 236 l 526 236 q 615 254 575 236 q 664 291 646 268 q 693 357 682 313 q 704 488 704 400 q 686 646 704 595 q 632 722 669 696 q 528 747 595 747 l 446 747 l 446 591 l 583 591 l 583 437 l 446 437 l 446 236 z "},"ð":{"ha":951,"x_min":33,"x_max":915,"o":"m 591 1107 l 687 1028 l 600 970 q 856 694 776 858 q 915 406 915 572 q 881 194 915 275 q 784 65 847 113 q 652 -2 721 16 q 481 -20 583 -20 q 273 7 351 -20 q 98 132 163 45 q 33 358 33 218 q 68 538 33 462 q 181 660 103 614 q 371 705 258 705 q 477 693 429 705 q 553 663 525 682 q 610 610 582 645 q 568 693 590 661 q 500 773 539 738 q 404 840 461 808 l 265 747 l 174 828 l 277 895 q 234 911 251 905 q 170 927 216 916 q 125 938 137 935 l 273 1094 q 378 1066 317 1084 q 477 1031 440 1047 l 591 1107 m 551 353 q 533 490 551 454 q 475 526 516 526 q 418 495 438 526 q 397 353 397 465 q 405 259 397 304 q 430 198 413 214 q 475 182 447 182 q 535 218 519 182 q 551 353 551 254 z "},"Ý":{"ha":1055,"x_min":-22,"x_max":1076,"o":"m 707 0 l 339 0 l 339 298 l -22 979 l 397 979 l 550 583 l 690 979 l 1076 979 l 707 298 l 707 0 m 546 1261 l 873 1261 l 612 1045 l 401 1045 l 546 1261 z "},"ý":{"ha":849,"x_min":-19,"x_max":861,"o":"m 524 725 l 861 725 l 640 39 q 586 -110 607 -65 q 527 -207 558 -169 q 459 -268 496 -245 q 367 -305 423 -290 q 239 -320 311 -320 q 31 -296 155 -320 l 31 -90 q 122 -104 78 -104 q 213 -80 184 -104 q 241 -19 241 -56 q 235 14 241 -3 l -19 725 l 345 725 l 436 279 l 524 725 m 444 1045 l 770 1045 l 510 829 l 299 829 l 444 1045 z "},"Þ":{"ha":1106,"x_min":68,"x_max":1065,"o":"m 68 979 l 441 979 l 441 856 l 700 856 q 951 780 862 856 q 1065 512 1065 685 q 970 255 1065 349 q 694 161 875 161 l 441 161 l 441 0 l 68 0 l 68 979 m 431 385 l 532 385 q 654 419 616 385 q 692 511 692 453 q 659 597 692 566 q 555 627 626 627 l 431 627 l 431 385 z "},"þ":{"ha":977,"x_min":67,"x_max":946,"o":"m 418 1050 l 418 767 l 414 640 q 496 714 454 692 q 639 744 556 744 q 863 650 779 744 q 946 365 946 556 q 907 152 946 234 q 799 26 868 70 q 644 -17 729 -17 q 516 11 575 -17 q 414 95 456 38 q 418 -17 418 32 l 418 -325 l 67 -325 l 70 1050 l 418 1050 m 583 353 q 558 481 583 448 q 493 514 533 514 q 424 471 445 514 q 408 357 408 438 q 425 243 408 275 q 499 201 447 201 q 560 231 538 201 q 583 353 583 261 z "},"−":{"ha":833,"x_min":38,"x_max":795,"o":"m 38 262 l 38 496 l 795 496 l 795 262 l 38 262 z "},"×":{"ha":833,"x_min":39,"x_max":794,"o":"m 39 166 l 252 379 l 39 591 l 204 757 l 416 544 l 629 757 l 794 591 l 581 379 l 794 166 l 629 1 l 416 214 l 204 1 l 39 166 z "},"¹":{"ha":469,"x_min":-12,"x_max":420,"o":"m -12 836 l 229 987 l 420 987 l 420 399 l 193 399 l 193 777 l 53 684 l -12 836 z "},"²":{"ha":534,"x_min":16,"x_max":515,"o":"m 258 539 l 515 539 l 515 399 l 16 399 l 16 562 q 181 645 109 602 q 275 719 253 688 q 289 772 289 739 q 260 827 289 804 q 168 850 231 850 q 30 823 99 850 l 30 974 q 236 998 149 998 q 393 972 329 998 q 487 900 458 945 q 515 803 515 855 q 465 674 515 733 q 258 539 414 616 z "},"³":{"ha":534,"x_min":20,"x_max":513,"o":"m 100 628 l 100 754 q 158 752 145 752 q 256 770 229 752 q 273 806 273 782 q 254 844 273 829 q 178 863 229 863 q 107 856 153 863 q 26 839 61 849 l 26 974 q 217 998 128 998 q 427 953 351 998 q 503 828 503 907 q 478 749 503 781 q 387 695 452 717 q 485 642 457 675 q 513 559 513 608 q 457 448 513 490 q 223 389 378 389 q 117 395 175 389 q 20 412 59 402 l 20 548 q 183 520 120 520 q 263 540 236 520 q 281 576 281 553 q 258 617 281 600 q 176 634 235 634 q 100 628 140 634 z "},"½":{"ha":1543,"x_min":-41,"x_max":1495,"o":"m 905 1013 l 1056 1013 l 510 -43 l 359 -43 l 905 1013 m -41 836 l 201 987 l 392 987 l 392 399 l 164 399 l 164 777 l 24 684 l -41 836 m 1237 140 l 1495 140 l 1495 0 l 996 0 l 996 163 q 1160 246 1088 203 q 1254 319 1232 289 q 1268 372 1268 340 q 1239 428 1268 405 q 1147 451 1210 451 q 1009 423 1078 451 l 1009 575 q 1215 599 1128 599 q 1373 572 1308 599 q 1466 501 1437 546 q 1495 404 1495 456 q 1444 275 1495 334 q 1237 140 1394 216 z "},"¼":{"ha":1543,"x_min":-56,"x_max":1484,"o":"m 897 1013 l 1048 1013 l 502 -43 l 351 -43 l 897 1013 m -56 836 l 186 987 l 377 987 l 377 399 l 149 399 l 149 777 l 9 684 l -56 836 m 1484 254 l 1484 112 l 1373 112 l 1373 0 l 1154 0 l 1154 112 l 878 112 l 878 304 l 1147 587 l 1373 587 l 1373 254 l 1484 254 m 1171 242 l 1171 412 l 1011 242 l 1171 242 z "},"¾":{"ha":1543,"x_min":21,"x_max":1528,"o":"m 952 1013 l 1103 1013 l 557 -43 l 406 -43 l 952 1013 m 100 628 l 100 754 q 159 752 146 752 q 256 770 230 752 q 274 806 274 782 q 255 844 274 829 q 179 863 229 863 q 108 856 154 863 q 27 839 62 849 l 27 974 q 218 998 129 998 q 428 953 351 998 q 504 828 504 907 q 478 749 504 781 q 388 695 453 717 q 486 642 458 675 q 514 559 514 608 q 458 448 514 490 q 224 389 378 389 q 118 395 176 389 q 21 412 60 402 l 21 548 q 184 520 121 520 q 264 540 237 520 q 282 576 282 553 q 259 617 282 600 q 177 634 236 634 q 100 628 140 634 m 1528 254 l 1528 112 l 1417 112 l 1417 0 l 1198 0 l 1198 112 l 922 112 l 922 304 l 1192 587 l 1417 587 l 1417 254 l 1528 254 m 1215 242 l 1215 412 l 1055 242 l 1215 242 z "},"₣":{"ha":1027,"x_min":115,"x_max":944,"o":"m 115 979 l 944 979 l 944 746 l 475 746 l 475 589 l 931 589 l 931 349 l 488 349 l 488 0 l 115 0 l 115 979 z "},"Ğ":{"ha":1080,"x_min":27,"x_max":1009,"o":"m 970 972 l 970 707 q 705 764 833 764 q 550 730 620 764 q 444 635 479 696 q 408 481 408 574 q 469 280 408 345 q 641 216 529 216 q 688 220 666 216 l 688 482 l 1009 482 l 1009 26 q 659 -27 846 -27 q 374 16 507 -27 q 218 98 283 45 q 112 210 153 150 q 50 343 72 270 q 27 500 27 416 q 82 739 27 633 q 233 909 137 844 q 416 983 308 958 q 644 1008 525 1008 q 812 997 718 1008 q 970 972 907 987 m 726 1256 l 874 1256 q 840 1140 869 1186 q 746 1062 811 1093 q 598 1031 681 1031 q 451 1063 516 1031 q 353 1155 386 1095 q 328 1256 328 1198 l 475 1256 q 514 1197 484 1219 q 600 1174 545 1174 q 681 1195 650 1174 q 726 1256 712 1215 z "},"ğ":{"ha":977,"x_min":31,"x_max":910,"o":"m 584 570 l 584 725 l 910 725 l 910 68 q 899 -59 910 -18 q 848 -160 884 -113 q 755 -241 811 -207 q 631 -292 699 -275 q 415 -318 528 -318 q 246 -307 338 -318 q 77 -277 153 -296 l 77 -43 q 235 -97 176 -83 q 355 -111 294 -111 q 484 -83 431 -111 q 555 -12 536 -55 q 572 119 573 31 q 471 27 532 60 q 339 -6 411 -6 q 203 24 264 -6 q 104 102 141 55 q 49 219 68 149 q 31 364 31 288 q 59 541 31 458 q 117 647 79 602 q 208 717 155 691 q 341 743 261 743 q 459 723 408 743 q 537 668 509 703 q 584 570 565 633 m 481 214 q 545 244 522 214 q 568 367 568 275 q 543 488 568 454 q 483 515 523 515 q 417 484 440 515 q 394 354 394 452 q 420 239 394 273 q 481 214 439 214 m 610 1040 l 758 1040 q 724 924 753 970 q 630 847 695 878 q 482 816 565 816 q 335 848 400 816 q 237 939 270 880 q 212 1040 212 982 l 359 1040 q 398 981 368 1004 q 484 958 429 958 q 565 979 534 958 q 610 1040 596 1000 z "},"İ":{"ha":515,"x_min":71,"x_max":440,"o":"m 440 979 l 440 0 l 71 0 l 71 979 l 440 979 m 382 1260 l 382 1045 l 132 1045 l 132 1260 l 382 1260 z "},"Ş":{"ha":951,"x_min":34,"x_max":915,"o":"m 486 -16 l 443 -85 q 493 -80 471 -80 q 564 -93 532 -80 q 612 -134 595 -106 q 628 -195 628 -162 q 576 -295 628 -252 q 431 -338 525 -338 q 333 -325 387 -338 q 237 -292 279 -312 l 275 -216 q 353 -243 328 -237 q 402 -250 379 -250 q 457 -234 438 -250 q 475 -199 475 -218 q 459 -167 475 -181 q 412 -153 442 -153 q 361 -161 386 -153 l 316 -117 l 376 -18 q 208 -4 299 -16 q 42 29 151 4 l 42 281 q 207 233 118 250 q 374 216 296 216 q 518 243 475 216 q 542 283 542 258 q 527 319 542 304 q 458 345 511 334 q 303 380 387 359 q 162 433 218 402 q 93 490 120 456 q 50 571 66 524 q 34 671 34 618 q 57 793 34 740 q 118 882 80 846 q 215 946 156 918 q 300 975 252 964 q 509 996 395 996 q 687 985 594 996 q 852 958 780 975 l 852 709 q 713 745 798 730 q 560 759 629 759 q 445 739 486 759 q 404 689 404 720 q 416 660 404 673 q 463 636 429 646 q 592 607 478 632 q 713 575 673 589 q 810 528 772 553 q 868 473 847 502 q 902 401 888 444 q 915 309 915 358 q 832 97 915 170 q 486 -16 726 3 z "},"ş":{"ha":772,"x_min":24,"x_max":749,"o":"m 422 -13 l 378 -85 q 428 -80 406 -80 q 498 -93 467 -80 q 547 -134 530 -106 q 563 -195 563 -162 q 511 -295 563 -252 q 366 -338 460 -338 q 268 -325 322 -338 q 172 -292 214 -312 l 209 -216 q 288 -243 262 -237 q 337 -250 313 -250 q 392 -234 373 -250 q 410 -199 410 -218 q 394 -167 410 -181 q 346 -153 377 -153 q 296 -161 320 -153 l 251 -117 l 311 -18 q 45 22 182 -16 l 45 231 q 298 165 162 165 q 409 184 377 165 q 427 214 427 195 q 408 244 427 233 q 340 260 393 252 q 214 283 252 273 q 113 327 154 300 q 48 398 72 354 q 24 497 24 442 q 43 588 24 547 q 96 658 62 629 q 177 708 129 687 q 248 730 207 721 q 419 746 326 746 q 692 715 551 746 l 692 516 q 588 547 652 534 q 469 559 523 559 q 368 541 399 559 q 351 512 351 530 q 370 486 351 495 q 463 468 383 479 q 576 447 542 456 q 653 417 625 433 q 702 376 680 400 q 736 320 724 353 q 749 246 749 288 q 725 142 749 187 q 664 68 701 96 q 565 18 628 41 q 422 -13 502 -5 z "},"Ć":{"ha":900,"x_min":27,"x_max":873,"o":"m 868 968 l 868 711 q 680 749 766 749 q 535 717 597 749 q 441 624 473 685 q 410 492 410 563 q 443 362 410 420 q 537 273 475 303 q 678 243 598 243 q 772 253 718 243 q 871 279 825 263 l 871 21 q 734 -8 808 3 q 598 -20 660 -20 q 332 31 454 -20 q 169 137 238 70 q 63 290 100 203 q 27 494 27 376 q 70 711 27 619 q 190 865 112 803 q 359 958 267 927 q 625 998 484 998 q 868 968 745 998 m 546 1260 l 873 1260 l 612 1044 l 401 1044 l 546 1260 z "},"ć":{"ha":772,"x_min":22,"x_max":734,"o":"m 720 715 l 720 500 q 564 537 629 537 q 438 491 486 537 q 391 370 391 445 q 438 238 391 287 q 569 190 486 190 q 726 233 636 190 l 726 16 q 463 -21 593 -21 q 262 11 355 -21 q 141 80 193 35 q 62 182 90 126 q 22 362 22 262 q 163 661 22 553 q 466 747 275 747 q 720 715 599 747 m 408 1046 l 734 1046 l 474 830 l 263 830 l 408 1046 z "},"Č":{"ha":900,"x_min":27,"x_max":871,"o":"m 868 968 l 868 711 q 680 749 766 749 q 535 717 597 749 q 441 624 473 685 q 410 492 410 563 q 443 362 410 420 q 537 273 475 303 q 678 243 598 243 q 772 253 718 243 q 871 279 825 263 l 871 21 q 734 -8 808 3 q 598 -20 660 -20 q 332 31 454 -20 q 169 137 238 70 q 63 290 100 203 q 27 494 27 376 q 70 711 27 619 q 190 865 112 803 q 359 958 267 927 q 625 998 484 998 q 868 968 745 998 m 679 1044 l 401 1044 l 243 1260 l 444 1260 l 544 1131 l 635 1260 l 840 1260 l 679 1044 z "},"č":{"ha":772,"x_min":22,"x_max":728,"o":"m 720 715 l 720 500 q 564 537 629 537 q 438 491 486 537 q 391 370 391 445 q 438 238 391 287 q 569 190 486 190 q 726 233 636 190 l 726 16 q 463 -21 593 -21 q 262 11 355 -21 q 141 80 193 35 q 62 182 90 126 q 22 362 22 262 q 163 661 22 553 q 466 747 275 747 q 720 715 599 747 m 567 830 l 289 830 l 132 1046 l 332 1046 l 432 917 l 524 1046 l 728 1046 l 567 830 z "},"đ":{"ha":977,"x_min":27,"x_max":981,"o":"m 556 829 l 381 829 l 381 964 l 556 964 l 556 1048 l 907 1048 l 907 964 l 981 964 l 981 829 l 907 829 l 907 0 l 585 0 l 585 132 q 496 17 552 56 q 353 -21 439 -21 q 215 5 279 -21 q 110 84 152 31 q 47 214 67 137 q 27 371 27 291 q 63 569 27 484 q 171 698 98 655 q 342 741 244 741 q 464 715 413 741 q 556 635 514 690 l 556 829 m 480 211 q 528 225 507 211 q 557 270 548 239 q 567 374 567 301 q 543 492 567 460 q 477 524 518 524 q 415 494 437 524 q 392 374 392 464 q 416 243 392 276 q 480 211 439 211 z "}}}
